G04 #@! TF.FileFunction,Copper,L1,Top,Signal*
%FSLAX46Y46*%
G04 Gerber Fmt 4.6, Leading zero omitted, Abs format (unit mm)*
G04 Created by KiCad (PCBNEW (after 2015-may-25 BZR unknown)-product) date Thu 04 Jun 2015 12:18:02 PM PDT*
%MOMM*%
G01*
G04 APERTURE LIST*
%ADD10C,0.100000*%
%ADD11R,1.198880X1.198880*%
%ADD12C,1.224000*%
%ADD13R,1.500000X1.300000*%
%ADD14R,1.300000X1.500000*%
%ADD15R,1.200000X0.900000*%
%ADD16R,1.000000X2.450000*%
%ADD17R,2.450000X1.000000*%
%ADD18C,0.600000*%
%ADD19C,0.250000*%
%ADD20C,0.500000*%
G04 APERTURE END LIST*
D10*
D11*
X158589980Y-100838000D03*
X160688020Y-100838000D03*
X158589980Y-98298000D03*
X160688020Y-98298000D03*
X158589980Y-95758000D03*
X160688020Y-95758000D03*
X158589980Y-93218000D03*
X160688020Y-93218000D03*
D12*
X140609500Y-110453500D03*
X142609500Y-110453500D03*
X144609500Y-110453500D03*
X146609500Y-110453500D03*
X148609500Y-110453500D03*
X150609500Y-110453500D03*
X152609500Y-110453500D03*
X154609500Y-110453500D03*
X156609500Y-110453500D03*
X158609500Y-110453500D03*
X140609500Y-88453500D03*
X142609500Y-88453500D03*
X144609500Y-88453500D03*
X146609500Y-88453500D03*
X148609500Y-88453500D03*
X150609500Y-88453500D03*
X152609500Y-88453500D03*
X154609500Y-88453500D03*
X156609500Y-88453500D03*
X158609500Y-88453500D03*
D13*
X153623000Y-108077000D03*
X150923000Y-108077000D03*
D14*
X153670000Y-103171000D03*
X153670000Y-105871000D03*
D13*
X156290000Y-100838000D03*
X153590000Y-100838000D03*
X156290000Y-98298000D03*
X153590000Y-98298000D03*
X156290000Y-95758000D03*
X153590000Y-95758000D03*
X156290000Y-93218000D03*
X153590000Y-93218000D03*
D15*
X140124000Y-90678000D03*
X142324000Y-90678000D03*
X145077000Y-90678000D03*
X147277000Y-90678000D03*
X150030000Y-90678000D03*
X152230000Y-90678000D03*
D16*
X148376000Y-93110000D03*
D17*
X150671000Y-104305000D03*
D16*
X138576000Y-105700000D03*
X139976000Y-105700000D03*
X141376000Y-105700000D03*
X142776000Y-105700000D03*
X144176000Y-105700000D03*
X145576000Y-105700000D03*
X146976000Y-105700000D03*
X148376000Y-105700000D03*
D17*
X150671000Y-102905000D03*
X150671000Y-101505000D03*
X150671000Y-100105000D03*
X150671000Y-98705000D03*
X150671000Y-97305000D03*
X150671000Y-95905000D03*
X150671000Y-94505000D03*
D16*
X146976000Y-93110000D03*
X145576000Y-93110000D03*
X144176000Y-93110000D03*
X142776000Y-93110000D03*
X141376000Y-93110000D03*
X139976000Y-93110000D03*
X138576000Y-93110000D03*
D13*
X159592000Y-107061000D03*
X156892000Y-107061000D03*
X159592000Y-104343200D03*
X156892000Y-104343200D03*
D18*
X145542000Y-89154000D03*
X145288000Y-108204000D03*
X145944077Y-91853753D03*
X139954000Y-107315000D03*
X149352000Y-93091000D03*
D19*
X156290000Y-100838000D02*
X158589980Y-100838000D01*
D20*
X148376000Y-105700000D02*
X148376000Y-103975000D01*
X139976000Y-94835000D02*
X139976000Y-93110000D01*
X148376000Y-103975000D02*
X139976000Y-95575000D01*
X139976000Y-95575000D02*
X139976000Y-94835000D01*
X145077000Y-90678000D02*
X145077000Y-89619000D01*
X145077000Y-89619000D02*
X145542000Y-89154000D01*
X140124000Y-90678000D02*
X140124000Y-89539762D01*
X140124000Y-89539762D02*
X139547499Y-88963261D01*
X139547499Y-88963261D02*
X139547499Y-87943739D01*
X139547499Y-87943739D02*
X140099739Y-87391499D01*
X159119261Y-87391499D02*
X160688020Y-88960258D01*
X160688020Y-88960258D02*
X160688020Y-92118560D01*
X140099739Y-87391499D02*
X159119261Y-87391499D01*
X140124000Y-90678000D02*
X140124000Y-92962000D01*
X140124000Y-92962000D02*
X139976000Y-93110000D01*
X153763980Y-92117999D02*
X160687459Y-92117999D01*
X152058001Y-92117999D02*
X153763980Y-92117999D01*
X150180000Y-90678000D02*
X150030000Y-90678000D01*
X153763980Y-92117999D02*
X151619999Y-92117999D01*
X151619999Y-92117999D02*
X150180000Y-90678000D01*
X138576000Y-93110000D02*
X139976000Y-93110000D01*
X150671000Y-94505000D02*
X150671000Y-93505000D01*
X150671000Y-93505000D02*
X152058001Y-92117999D01*
X160687459Y-92117999D02*
X160688020Y-92118560D01*
X160688020Y-92118560D02*
X160688020Y-93218000D01*
X160688020Y-100838000D02*
X160688020Y-101937440D01*
X160688020Y-101937440D02*
X160792001Y-102041421D01*
X160792001Y-102041421D02*
X160792001Y-108270999D01*
X159221499Y-109841501D02*
X158609500Y-110453500D01*
X160792001Y-108270999D02*
X159221499Y-109841501D01*
X160688020Y-98298000D02*
X160688020Y-100838000D01*
X160688020Y-95758000D02*
X160688020Y-98298000D01*
X160688020Y-93218000D02*
X160688020Y-95758000D01*
D19*
X156290000Y-98298000D02*
X158589980Y-98298000D01*
X156290000Y-95758000D02*
X158589980Y-95758000D01*
X156290000Y-93218000D02*
X158589980Y-93218000D01*
X159592000Y-107061000D02*
X159492000Y-107061000D01*
X159492000Y-107061000D02*
X158476000Y-108077000D01*
X158476000Y-108077000D02*
X154623000Y-108077000D01*
X154623000Y-108077000D02*
X153623000Y-108077000D01*
X150671000Y-104305000D02*
X152182588Y-104305000D01*
X152182588Y-104305000D02*
X152673587Y-104795999D01*
X152673587Y-104795999D02*
X154526999Y-104795999D01*
X154526999Y-104795999D02*
X156792000Y-107061000D01*
X156792000Y-107061000D02*
X156892000Y-107061000D01*
X159592000Y-104343200D02*
X159492000Y-104343200D01*
X159492000Y-104343200D02*
X158319800Y-103171000D01*
X158319800Y-103171000D02*
X154570000Y-103171000D01*
X154570000Y-103171000D02*
X153670000Y-103171000D01*
X150671000Y-102905000D02*
X152146000Y-102905000D01*
X152146000Y-102905000D02*
X152694999Y-103453999D01*
X152857198Y-104343200D02*
X155892000Y-104343200D01*
X152694999Y-103453999D02*
X152694999Y-104181001D01*
X152694999Y-104181001D02*
X152857198Y-104343200D01*
X155892000Y-104343200D02*
X156892000Y-104343200D01*
D20*
X145576000Y-105700000D02*
X146976000Y-105700000D01*
X144176000Y-105700000D02*
X145576000Y-105700000D01*
X145288000Y-108204000D02*
X145576000Y-107916000D01*
X145576000Y-107916000D02*
X145576000Y-105700000D01*
X150923000Y-108077000D02*
X151464000Y-108077000D01*
X151464000Y-108077000D02*
X153670000Y-105871000D01*
X146976000Y-105700000D02*
X146976000Y-107425000D01*
X149673000Y-108077000D02*
X150923000Y-108077000D01*
X147628000Y-108077000D02*
X149673000Y-108077000D01*
X146976000Y-107425000D02*
X147628000Y-108077000D01*
D19*
X138576000Y-105700000D02*
X138576000Y-109806762D01*
X141997501Y-111065499D02*
X142609500Y-110453500D01*
X138576000Y-109806762D02*
X140159739Y-111390501D01*
X140159739Y-111390501D02*
X141672499Y-111390501D01*
X141672499Y-111390501D02*
X141997501Y-111065499D01*
X142776000Y-105700000D02*
X142776000Y-107175000D01*
X142776000Y-107175000D02*
X144609500Y-109008500D01*
X144609500Y-109008500D02*
X144609500Y-109588002D01*
X144609500Y-109588002D02*
X144609500Y-110453500D01*
X145576000Y-93110000D02*
X145576000Y-92221830D01*
X145576000Y-92221830D02*
X145944077Y-91853753D01*
X145576000Y-93110000D02*
X145576000Y-92229000D01*
X145576000Y-92229000D02*
X147127000Y-90678000D01*
X147127000Y-90678000D02*
X147277000Y-90678000D01*
X145576000Y-93110000D02*
X145576000Y-92199998D01*
X141376000Y-105700000D02*
X141376000Y-107175000D01*
X141376000Y-107175000D02*
X143672499Y-109471499D01*
X143672499Y-109471499D02*
X143672499Y-110903261D01*
X143672499Y-110903261D02*
X144159739Y-111390501D01*
X144159739Y-111390501D02*
X147672499Y-111390501D01*
X147672499Y-111390501D02*
X147997501Y-111065499D01*
X147997501Y-111065499D02*
X148609500Y-110453500D01*
X139976000Y-105700000D02*
X139976000Y-107293000D01*
X139976000Y-107293000D02*
X139954000Y-107315000D01*
X141376000Y-93110000D02*
X141376000Y-89687000D01*
X141376000Y-89687000D02*
X142609500Y-88453500D01*
X144176000Y-93110000D02*
X144176000Y-91635000D01*
X144176000Y-91635000D02*
X143997501Y-91456501D01*
X143997501Y-91456501D02*
X143997501Y-89065499D01*
X143997501Y-89065499D02*
X144609500Y-88453500D01*
X144176000Y-91635000D02*
X143219000Y-90678000D01*
X143219000Y-90678000D02*
X143174000Y-90678000D01*
X143174000Y-90678000D02*
X142324000Y-90678000D01*
X148376000Y-93110000D02*
X149333000Y-93110000D01*
X149333000Y-93110000D02*
X149352000Y-93091000D01*
X146976000Y-93110000D02*
X146976000Y-92199998D01*
X146976000Y-92199998D02*
X147722997Y-91453001D01*
X149104999Y-89967999D02*
X149682497Y-89390501D01*
X147722997Y-91453001D02*
X148137001Y-91453001D01*
X148137001Y-91453001D02*
X149104999Y-90485003D01*
X149104999Y-90485003D02*
X149104999Y-89967999D01*
X149682497Y-89390501D02*
X150380700Y-89390501D01*
X150380700Y-89390501D02*
X157672499Y-89390501D01*
X150380700Y-89390501D02*
X150792501Y-89390501D01*
X150792501Y-89390501D02*
X152080000Y-90678000D01*
X152080000Y-90678000D02*
X152230000Y-90678000D01*
X157672499Y-89390501D02*
X157997501Y-89065499D01*
X157997501Y-89065499D02*
X158609500Y-88453500D01*
X150671000Y-100105000D02*
X152857000Y-100105000D01*
X152857000Y-100105000D02*
X153590000Y-100838000D01*
X150671000Y-98705000D02*
X153183000Y-98705000D01*
X153183000Y-98705000D02*
X153590000Y-98298000D01*
X150671000Y-97305000D02*
X152146000Y-97305000D01*
X152146000Y-97305000D02*
X153590000Y-95861000D01*
X153590000Y-95861000D02*
X153590000Y-95758000D01*
X153590000Y-93218000D02*
X153490000Y-93218000D01*
X153490000Y-93218000D02*
X152590000Y-94118000D01*
X152590000Y-94118000D02*
X152590000Y-94896002D01*
X152590000Y-94896002D02*
X151581002Y-95905000D01*
X151581002Y-95905000D02*
X150671000Y-95905000D01*
G36*
X161625000Y-111582000D02*
X157546662Y-111582000D01*
X157546662Y-110267937D01*
X157404313Y-109923425D01*
X157140961Y-109659613D01*
X156796699Y-109516663D01*
X156423937Y-109516338D01*
X156079425Y-109658687D01*
X155815613Y-109922039D01*
X155672663Y-110266301D01*
X155672338Y-110639063D01*
X155814687Y-110983575D01*
X156078039Y-111247387D01*
X156422301Y-111390337D01*
X156795063Y-111390662D01*
X157139575Y-111248313D01*
X157403387Y-110984961D01*
X157546337Y-110640699D01*
X157546662Y-110267937D01*
X157546662Y-111582000D01*
X155546662Y-111582000D01*
X155546662Y-110267937D01*
X155404313Y-109923425D01*
X155140961Y-109659613D01*
X154796699Y-109516663D01*
X154423937Y-109516338D01*
X154079425Y-109658687D01*
X153815613Y-109922039D01*
X153672663Y-110266301D01*
X153672338Y-110639063D01*
X153814687Y-110983575D01*
X154078039Y-111247387D01*
X154422301Y-111390337D01*
X154795063Y-111390662D01*
X155139575Y-111248313D01*
X155403387Y-110984961D01*
X155546337Y-110640699D01*
X155546662Y-110267937D01*
X155546662Y-111582000D01*
X153546662Y-111582000D01*
X153546662Y-110267937D01*
X153404313Y-109923425D01*
X153140961Y-109659613D01*
X152796699Y-109516663D01*
X152423937Y-109516338D01*
X152079425Y-109658687D01*
X151815613Y-109922039D01*
X151672663Y-110266301D01*
X151672338Y-110639063D01*
X151814687Y-110983575D01*
X152078039Y-111247387D01*
X152422301Y-111390337D01*
X152795063Y-111390662D01*
X153139575Y-111248313D01*
X153403387Y-110984961D01*
X153546337Y-110640699D01*
X153546662Y-110267937D01*
X153546662Y-111582000D01*
X151546662Y-111582000D01*
X151546662Y-110267937D01*
X151404313Y-109923425D01*
X151140961Y-109659613D01*
X150796699Y-109516663D01*
X150423937Y-109516338D01*
X150079425Y-109658687D01*
X149815613Y-109922039D01*
X149672663Y-110266301D01*
X149672338Y-110639063D01*
X149814687Y-110983575D01*
X150078039Y-111247387D01*
X150422301Y-111390337D01*
X150795063Y-111390662D01*
X151139575Y-111248313D01*
X151403387Y-110984961D01*
X151546337Y-110640699D01*
X151546662Y-110267937D01*
X151546662Y-111582000D01*
X148117396Y-111582000D01*
X148315699Y-111383697D01*
X148342284Y-111357111D01*
X148422301Y-111390337D01*
X148795063Y-111390662D01*
X149139575Y-111248313D01*
X149403387Y-110984961D01*
X149546337Y-110640699D01*
X149546662Y-110267937D01*
X149404313Y-109923425D01*
X149140961Y-109659613D01*
X148796699Y-109516663D01*
X148423937Y-109516338D01*
X148079425Y-109658687D01*
X147815613Y-109922039D01*
X147672663Y-110266301D01*
X147672338Y-110639063D01*
X147706021Y-110720582D01*
X147679303Y-110747301D01*
X147486103Y-110940501D01*
X147421848Y-110940501D01*
X147546337Y-110640699D01*
X147546662Y-110267937D01*
X147404313Y-109923425D01*
X147140961Y-109659613D01*
X146796699Y-109516663D01*
X146423937Y-109516338D01*
X146079425Y-109658687D01*
X145815613Y-109922039D01*
X145672663Y-110266301D01*
X145672338Y-110639063D01*
X145796889Y-110940501D01*
X145421848Y-110940501D01*
X145546337Y-110640699D01*
X145546662Y-110267937D01*
X145404313Y-109923425D01*
X145140961Y-109659613D01*
X145059500Y-109625787D01*
X145059500Y-109588002D01*
X145059500Y-109008500D01*
X145025247Y-108836293D01*
X145025246Y-108836292D01*
X144965453Y-108746806D01*
X145163134Y-108828891D01*
X145411775Y-108829108D01*
X145641571Y-108734158D01*
X145817540Y-108558496D01*
X145867859Y-108437312D01*
X145982586Y-108322586D01*
X145982587Y-108322586D01*
X146107231Y-108136043D01*
X146151000Y-107916000D01*
X146151000Y-107241814D01*
X146199921Y-107232323D01*
X146276270Y-107182170D01*
X146348231Y-107230744D01*
X146401000Y-107241326D01*
X146401000Y-107425000D01*
X146444769Y-107645043D01*
X146569414Y-107831586D01*
X147221413Y-108483586D01*
X147221414Y-108483586D01*
X147407957Y-108608231D01*
X147628000Y-108652000D01*
X149673000Y-108652000D01*
X149841633Y-108652000D01*
X149841633Y-108727000D01*
X149865677Y-108850921D01*
X149937222Y-108959837D01*
X150045231Y-109032744D01*
X150173000Y-109058367D01*
X151673000Y-109058367D01*
X151796921Y-109034323D01*
X151905837Y-108962778D01*
X151978744Y-108854769D01*
X152004367Y-108727000D01*
X152004367Y-108349805D01*
X152541633Y-107812539D01*
X152541633Y-108727000D01*
X152565677Y-108850921D01*
X152637222Y-108959837D01*
X152745231Y-109032744D01*
X152873000Y-109058367D01*
X154373000Y-109058367D01*
X154496921Y-109034323D01*
X154605837Y-108962778D01*
X154678744Y-108854769D01*
X154704367Y-108727000D01*
X154704367Y-108527000D01*
X158476000Y-108527000D01*
X158648207Y-108492746D01*
X158648208Y-108492746D01*
X158794198Y-108395198D01*
X159147029Y-108042367D01*
X160342000Y-108042367D01*
X160465921Y-108018323D01*
X160574837Y-107946778D01*
X160647744Y-107838769D01*
X160673367Y-107711000D01*
X160673367Y-106411000D01*
X160649323Y-106287079D01*
X160577778Y-106178163D01*
X160469769Y-106105256D01*
X160342000Y-106079633D01*
X158842000Y-106079633D01*
X158718079Y-106103677D01*
X158609163Y-106175222D01*
X158536256Y-106283231D01*
X158510633Y-106411000D01*
X158510633Y-107405971D01*
X158289604Y-107627000D01*
X157973367Y-107627000D01*
X157973367Y-106411000D01*
X157949323Y-106287079D01*
X157877778Y-106178163D01*
X157769769Y-106105256D01*
X157642000Y-106079633D01*
X156447029Y-106079633D01*
X155160596Y-104793200D01*
X155810633Y-104793200D01*
X155810633Y-104993200D01*
X155834677Y-105117121D01*
X155906222Y-105226037D01*
X156014231Y-105298944D01*
X156142000Y-105324567D01*
X157642000Y-105324567D01*
X157765921Y-105300523D01*
X157874837Y-105228978D01*
X157947744Y-105120969D01*
X157973367Y-104993200D01*
X157973367Y-103693200D01*
X157959358Y-103621000D01*
X158133404Y-103621000D01*
X158510633Y-103998229D01*
X158510633Y-104993200D01*
X158534677Y-105117121D01*
X158606222Y-105226037D01*
X158714231Y-105298944D01*
X158842000Y-105324567D01*
X160342000Y-105324567D01*
X160465921Y-105300523D01*
X160574837Y-105228978D01*
X160647744Y-105120969D01*
X160673367Y-104993200D01*
X160673367Y-103693200D01*
X160649323Y-103569279D01*
X160577778Y-103460363D01*
X160469769Y-103387456D01*
X160342000Y-103361833D01*
X159546662Y-103361833D01*
X159546662Y-88267937D01*
X159404313Y-87923425D01*
X159140961Y-87659613D01*
X158796699Y-87516663D01*
X158423937Y-87516338D01*
X158079425Y-87658687D01*
X157815613Y-87922039D01*
X157672663Y-88266301D01*
X157672338Y-88639063D01*
X157706021Y-88720582D01*
X157679303Y-88747301D01*
X157486103Y-88940501D01*
X157421848Y-88940501D01*
X157546337Y-88640699D01*
X157546662Y-88267937D01*
X157404313Y-87923425D01*
X157140961Y-87659613D01*
X156796699Y-87516663D01*
X156423937Y-87516338D01*
X156079425Y-87658687D01*
X155815613Y-87922039D01*
X155672663Y-88266301D01*
X155672338Y-88639063D01*
X155796889Y-88940501D01*
X155421848Y-88940501D01*
X155546337Y-88640699D01*
X155546662Y-88267937D01*
X155404313Y-87923425D01*
X155140961Y-87659613D01*
X154796699Y-87516663D01*
X154423937Y-87516338D01*
X154079425Y-87658687D01*
X153815613Y-87922039D01*
X153672663Y-88266301D01*
X153672338Y-88639063D01*
X153796889Y-88940501D01*
X153421848Y-88940501D01*
X153546337Y-88640699D01*
X153546662Y-88267937D01*
X153404313Y-87923425D01*
X153140961Y-87659613D01*
X152796699Y-87516663D01*
X152423937Y-87516338D01*
X152079425Y-87658687D01*
X151815613Y-87922039D01*
X151672663Y-88266301D01*
X151672338Y-88639063D01*
X151796889Y-88940501D01*
X151421848Y-88940501D01*
X151546337Y-88640699D01*
X151546662Y-88267937D01*
X151404313Y-87923425D01*
X151140961Y-87659613D01*
X150796699Y-87516663D01*
X150423937Y-87516338D01*
X150079425Y-87658687D01*
X149815613Y-87922039D01*
X149672663Y-88266301D01*
X149672338Y-88639063D01*
X149796889Y-88940501D01*
X149682497Y-88940501D01*
X149546662Y-88967519D01*
X149546662Y-88267937D01*
X149404313Y-87923425D01*
X149140961Y-87659613D01*
X148796699Y-87516663D01*
X148423937Y-87516338D01*
X148079425Y-87658687D01*
X147815613Y-87922039D01*
X147672663Y-88266301D01*
X147672338Y-88639063D01*
X147814687Y-88983575D01*
X148078039Y-89247387D01*
X148422301Y-89390337D01*
X148795063Y-89390662D01*
X149139575Y-89248313D01*
X149403387Y-88984961D01*
X149546337Y-88640699D01*
X149546662Y-88267937D01*
X149546662Y-88967519D01*
X149510290Y-88974754D01*
X149364299Y-89072303D01*
X148786801Y-89649801D01*
X148689253Y-89795791D01*
X148654999Y-89967999D01*
X148654999Y-90298607D01*
X148208367Y-90745239D01*
X148208367Y-90228000D01*
X148184323Y-90104079D01*
X148112778Y-89995163D01*
X148004769Y-89922256D01*
X147877000Y-89896633D01*
X147546662Y-89896633D01*
X147546662Y-88267937D01*
X147404313Y-87923425D01*
X147140961Y-87659613D01*
X146796699Y-87516663D01*
X146423937Y-87516338D01*
X146079425Y-87658687D01*
X145815613Y-87922039D01*
X145672663Y-88266301D01*
X145672338Y-88639063D01*
X145814687Y-88983575D01*
X146078039Y-89247387D01*
X146422301Y-89390337D01*
X146795063Y-89390662D01*
X147139575Y-89248313D01*
X147403387Y-88984961D01*
X147546337Y-88640699D01*
X147546662Y-88267937D01*
X147546662Y-89896633D01*
X146677000Y-89896633D01*
X146553079Y-89920677D01*
X146444163Y-89992222D01*
X146371256Y-90100231D01*
X146345633Y-90228000D01*
X146345633Y-90822971D01*
X145939854Y-91228749D01*
X145820302Y-91228645D01*
X145590506Y-91323595D01*
X145414537Y-91499257D01*
X145391958Y-91553633D01*
X145076000Y-91553633D01*
X144952079Y-91577677D01*
X144875729Y-91627829D01*
X144803769Y-91579256D01*
X144676000Y-91553633D01*
X144609815Y-91553633D01*
X144591746Y-91462793D01*
X144591746Y-91462792D01*
X144494198Y-91316802D01*
X144447501Y-91270105D01*
X144447501Y-89390358D01*
X144795063Y-89390662D01*
X145139575Y-89248313D01*
X145403387Y-88984961D01*
X145546337Y-88640699D01*
X145546662Y-88267937D01*
X145404313Y-87923425D01*
X145140961Y-87659613D01*
X144796699Y-87516663D01*
X144423937Y-87516338D01*
X144079425Y-87658687D01*
X143815613Y-87922039D01*
X143672663Y-88266301D01*
X143672338Y-88639063D01*
X143706021Y-88720582D01*
X143679303Y-88747301D01*
X143581755Y-88893291D01*
X143547501Y-89065499D01*
X143547501Y-90370105D01*
X143537198Y-90359802D01*
X143391208Y-90262254D01*
X143255367Y-90235233D01*
X143255367Y-90228000D01*
X143231323Y-90104079D01*
X143159778Y-89995163D01*
X143051769Y-89922256D01*
X142924000Y-89896633D01*
X141826000Y-89896633D01*
X141826000Y-89873396D01*
X142342284Y-89357111D01*
X142422301Y-89390337D01*
X142795063Y-89390662D01*
X143139575Y-89248313D01*
X143403387Y-88984961D01*
X143546337Y-88640699D01*
X143546662Y-88267937D01*
X143404313Y-87923425D01*
X143140961Y-87659613D01*
X142796699Y-87516663D01*
X142423937Y-87516338D01*
X142079425Y-87658687D01*
X141815613Y-87922039D01*
X141672663Y-88266301D01*
X141672338Y-88639063D01*
X141706021Y-88720582D01*
X141546662Y-88879941D01*
X141546662Y-88267937D01*
X141404313Y-87923425D01*
X141140961Y-87659613D01*
X140796699Y-87516663D01*
X140423937Y-87516338D01*
X140079425Y-87658687D01*
X139815613Y-87922039D01*
X139672663Y-88266301D01*
X139672338Y-88639063D01*
X139814687Y-88983575D01*
X140078039Y-89247387D01*
X140422301Y-89390337D01*
X140795063Y-89390662D01*
X141139575Y-89248313D01*
X141403387Y-88984961D01*
X141546337Y-88640699D01*
X141546662Y-88267937D01*
X141546662Y-88879941D01*
X141057802Y-89368802D01*
X140960254Y-89514792D01*
X140926000Y-89687000D01*
X140926000Y-91553633D01*
X140876000Y-91553633D01*
X140752079Y-91577677D01*
X140643163Y-91649222D01*
X140570256Y-91757231D01*
X140544633Y-91885000D01*
X140544633Y-94335000D01*
X140568677Y-94458921D01*
X140640222Y-94567837D01*
X140748231Y-94640744D01*
X140876000Y-94666367D01*
X141876000Y-94666367D01*
X141999921Y-94642323D01*
X142108837Y-94570778D01*
X142181744Y-94462769D01*
X142207367Y-94335000D01*
X142207367Y-91885000D01*
X142183323Y-91761079D01*
X142111778Y-91652163D01*
X142003769Y-91579256D01*
X141876000Y-91553633D01*
X141826000Y-91553633D01*
X141826000Y-91459367D01*
X142924000Y-91459367D01*
X143047921Y-91435323D01*
X143156837Y-91363778D01*
X143201788Y-91297184D01*
X143509952Y-91605348D01*
X143443163Y-91649222D01*
X143370256Y-91757231D01*
X143344633Y-91885000D01*
X143344633Y-94335000D01*
X143368677Y-94458921D01*
X143440222Y-94567837D01*
X143548231Y-94640744D01*
X143676000Y-94666367D01*
X144676000Y-94666367D01*
X144799921Y-94642323D01*
X144876270Y-94592170D01*
X144948231Y-94640744D01*
X145076000Y-94666367D01*
X146076000Y-94666367D01*
X146199921Y-94642323D01*
X146276270Y-94592170D01*
X146348231Y-94640744D01*
X146476000Y-94666367D01*
X147476000Y-94666367D01*
X147599921Y-94642323D01*
X147676270Y-94592170D01*
X147748231Y-94640744D01*
X147876000Y-94666367D01*
X148876000Y-94666367D01*
X148999921Y-94642323D01*
X149108837Y-94570778D01*
X149181744Y-94462769D01*
X149207367Y-94335000D01*
X149207367Y-93707682D01*
X149227134Y-93715891D01*
X149475775Y-93716108D01*
X149705571Y-93621158D01*
X149881540Y-93445496D01*
X149976891Y-93215866D01*
X149977108Y-92967225D01*
X149882158Y-92737429D01*
X149706496Y-92561460D01*
X149476866Y-92466109D01*
X149228225Y-92465892D01*
X149207367Y-92474510D01*
X149207367Y-91885000D01*
X149183323Y-91761079D01*
X149111778Y-91652163D01*
X149003769Y-91579256D01*
X148876000Y-91553633D01*
X148672765Y-91553633D01*
X149423197Y-90803201D01*
X149520745Y-90657211D01*
X149520745Y-90657210D01*
X149554999Y-90485003D01*
X149554999Y-90154395D01*
X149868893Y-89840501D01*
X150380700Y-89840501D01*
X150606105Y-89840501D01*
X151298633Y-90533029D01*
X151298633Y-91128000D01*
X151322677Y-91251921D01*
X151394222Y-91360837D01*
X151502231Y-91433744D01*
X151630000Y-91459367D01*
X152830000Y-91459367D01*
X152953921Y-91435323D01*
X153062837Y-91363778D01*
X153135744Y-91255769D01*
X153161367Y-91128000D01*
X153161367Y-90228000D01*
X153137323Y-90104079D01*
X153065778Y-89995163D01*
X152957769Y-89922256D01*
X152830000Y-89896633D01*
X151935029Y-89896633D01*
X151878896Y-89840501D01*
X157672499Y-89840501D01*
X157844706Y-89806247D01*
X157844707Y-89806247D01*
X157990697Y-89708699D01*
X158315699Y-89383697D01*
X158342284Y-89357111D01*
X158422301Y-89390337D01*
X158795063Y-89390662D01*
X159139575Y-89248313D01*
X159403387Y-88984961D01*
X159546337Y-88640699D01*
X159546662Y-88267937D01*
X159546662Y-103361833D01*
X159520787Y-103361833D01*
X159520787Y-101437440D01*
X159520787Y-100238560D01*
X159520787Y-98897440D01*
X159520787Y-97698560D01*
X159520787Y-96357440D01*
X159520787Y-95158560D01*
X159520787Y-93817440D01*
X159520787Y-92618560D01*
X159496743Y-92494639D01*
X159425198Y-92385723D01*
X159317189Y-92312816D01*
X159189420Y-92287193D01*
X157990540Y-92287193D01*
X157866619Y-92311237D01*
X157757703Y-92382782D01*
X157684796Y-92490791D01*
X157659173Y-92618560D01*
X157659173Y-92768000D01*
X157371367Y-92768000D01*
X157371367Y-92568000D01*
X157347323Y-92444079D01*
X157275778Y-92335163D01*
X157167769Y-92262256D01*
X157040000Y-92236633D01*
X155540000Y-92236633D01*
X155416079Y-92260677D01*
X155307163Y-92332222D01*
X155234256Y-92440231D01*
X155208633Y-92568000D01*
X155208633Y-93868000D01*
X155232677Y-93991921D01*
X155304222Y-94100837D01*
X155412231Y-94173744D01*
X155540000Y-94199367D01*
X157040000Y-94199367D01*
X157163921Y-94175323D01*
X157272837Y-94103778D01*
X157345744Y-93995769D01*
X157371367Y-93868000D01*
X157371367Y-93668000D01*
X157659173Y-93668000D01*
X157659173Y-93817440D01*
X157683217Y-93941361D01*
X157754762Y-94050277D01*
X157862771Y-94123184D01*
X157990540Y-94148807D01*
X159189420Y-94148807D01*
X159313341Y-94124763D01*
X159422257Y-94053218D01*
X159495164Y-93945209D01*
X159520787Y-93817440D01*
X159520787Y-95158560D01*
X159496743Y-95034639D01*
X159425198Y-94925723D01*
X159317189Y-94852816D01*
X159189420Y-94827193D01*
X157990540Y-94827193D01*
X157866619Y-94851237D01*
X157757703Y-94922782D01*
X157684796Y-95030791D01*
X157659173Y-95158560D01*
X157659173Y-95308000D01*
X157371367Y-95308000D01*
X157371367Y-95108000D01*
X157347323Y-94984079D01*
X157275778Y-94875163D01*
X157167769Y-94802256D01*
X157040000Y-94776633D01*
X155540000Y-94776633D01*
X155416079Y-94800677D01*
X155307163Y-94872222D01*
X155234256Y-94980231D01*
X155208633Y-95108000D01*
X155208633Y-96408000D01*
X155232677Y-96531921D01*
X155304222Y-96640837D01*
X155412231Y-96713744D01*
X155540000Y-96739367D01*
X157040000Y-96739367D01*
X157163921Y-96715323D01*
X157272837Y-96643778D01*
X157345744Y-96535769D01*
X157371367Y-96408000D01*
X157371367Y-96208000D01*
X157659173Y-96208000D01*
X157659173Y-96357440D01*
X157683217Y-96481361D01*
X157754762Y-96590277D01*
X157862771Y-96663184D01*
X157990540Y-96688807D01*
X159189420Y-96688807D01*
X159313341Y-96664763D01*
X159422257Y-96593218D01*
X159495164Y-96485209D01*
X159520787Y-96357440D01*
X159520787Y-97698560D01*
X159496743Y-97574639D01*
X159425198Y-97465723D01*
X159317189Y-97392816D01*
X159189420Y-97367193D01*
X157990540Y-97367193D01*
X157866619Y-97391237D01*
X157757703Y-97462782D01*
X157684796Y-97570791D01*
X157659173Y-97698560D01*
X157659173Y-97848000D01*
X157371367Y-97848000D01*
X157371367Y-97648000D01*
X157347323Y-97524079D01*
X157275778Y-97415163D01*
X157167769Y-97342256D01*
X157040000Y-97316633D01*
X155540000Y-97316633D01*
X155416079Y-97340677D01*
X155307163Y-97412222D01*
X155234256Y-97520231D01*
X155208633Y-97648000D01*
X155208633Y-98948000D01*
X155232677Y-99071921D01*
X155304222Y-99180837D01*
X155412231Y-99253744D01*
X155540000Y-99279367D01*
X157040000Y-99279367D01*
X157163921Y-99255323D01*
X157272837Y-99183778D01*
X157345744Y-99075769D01*
X157371367Y-98948000D01*
X157371367Y-98748000D01*
X157659173Y-98748000D01*
X157659173Y-98897440D01*
X157683217Y-99021361D01*
X157754762Y-99130277D01*
X157862771Y-99203184D01*
X157990540Y-99228807D01*
X159189420Y-99228807D01*
X159313341Y-99204763D01*
X159422257Y-99133218D01*
X159495164Y-99025209D01*
X159520787Y-98897440D01*
X159520787Y-100238560D01*
X159496743Y-100114639D01*
X159425198Y-100005723D01*
X159317189Y-99932816D01*
X159189420Y-99907193D01*
X157990540Y-99907193D01*
X157866619Y-99931237D01*
X157757703Y-100002782D01*
X157684796Y-100110791D01*
X157659173Y-100238560D01*
X157659173Y-100388000D01*
X157371367Y-100388000D01*
X157371367Y-100188000D01*
X157347323Y-100064079D01*
X157275778Y-99955163D01*
X157167769Y-99882256D01*
X157040000Y-99856633D01*
X155540000Y-99856633D01*
X155416079Y-99880677D01*
X155307163Y-99952222D01*
X155234256Y-100060231D01*
X155208633Y-100188000D01*
X155208633Y-101488000D01*
X155232677Y-101611921D01*
X155304222Y-101720837D01*
X155412231Y-101793744D01*
X155540000Y-101819367D01*
X157040000Y-101819367D01*
X157163921Y-101795323D01*
X157272837Y-101723778D01*
X157345744Y-101615769D01*
X157371367Y-101488000D01*
X157371367Y-101288000D01*
X157659173Y-101288000D01*
X157659173Y-101437440D01*
X157683217Y-101561361D01*
X157754762Y-101670277D01*
X157862771Y-101743184D01*
X157990540Y-101768807D01*
X159189420Y-101768807D01*
X159313341Y-101744763D01*
X159422257Y-101673218D01*
X159495164Y-101565209D01*
X159520787Y-101437440D01*
X159520787Y-103361833D01*
X159147029Y-103361833D01*
X158637998Y-102852802D01*
X158492008Y-102755254D01*
X158319800Y-102721000D01*
X154651367Y-102721000D01*
X154651367Y-102421000D01*
X154627323Y-102297079D01*
X154555778Y-102188163D01*
X154447769Y-102115256D01*
X154320000Y-102089633D01*
X153020000Y-102089633D01*
X152896079Y-102113677D01*
X152787163Y-102185222D01*
X152714256Y-102293231D01*
X152688633Y-102421000D01*
X152688633Y-102811237D01*
X152464198Y-102586802D01*
X152318208Y-102489254D01*
X152227367Y-102471184D01*
X152227367Y-102405000D01*
X152203323Y-102281079D01*
X152153170Y-102204729D01*
X152201744Y-102132769D01*
X152227367Y-102005000D01*
X152227367Y-101005000D01*
X152203323Y-100881079D01*
X152153170Y-100804729D01*
X152201744Y-100732769D01*
X152227367Y-100605000D01*
X152227367Y-100555000D01*
X152508633Y-100555000D01*
X152508633Y-101488000D01*
X152532677Y-101611921D01*
X152604222Y-101720837D01*
X152712231Y-101793744D01*
X152840000Y-101819367D01*
X154340000Y-101819367D01*
X154463921Y-101795323D01*
X154572837Y-101723778D01*
X154645744Y-101615769D01*
X154671367Y-101488000D01*
X154671367Y-100188000D01*
X154647323Y-100064079D01*
X154575778Y-99955163D01*
X154467769Y-99882256D01*
X154340000Y-99856633D01*
X153245029Y-99856633D01*
X153175198Y-99786802D01*
X153029208Y-99689254D01*
X152857000Y-99655000D01*
X152227367Y-99655000D01*
X152227367Y-99605000D01*
X152203323Y-99481079D01*
X152153170Y-99404729D01*
X152201744Y-99332769D01*
X152227367Y-99205000D01*
X152227367Y-99155000D01*
X152587250Y-99155000D01*
X152604222Y-99180837D01*
X152712231Y-99253744D01*
X152840000Y-99279367D01*
X154340000Y-99279367D01*
X154463921Y-99255323D01*
X154572837Y-99183778D01*
X154645744Y-99075769D01*
X154671367Y-98948000D01*
X154671367Y-97648000D01*
X154647323Y-97524079D01*
X154575778Y-97415163D01*
X154467769Y-97342256D01*
X154340000Y-97316633D01*
X152840000Y-97316633D01*
X152754095Y-97333300D01*
X153348029Y-96739367D01*
X154340000Y-96739367D01*
X154463921Y-96715323D01*
X154572837Y-96643778D01*
X154645744Y-96535769D01*
X154671367Y-96408000D01*
X154671367Y-95108000D01*
X154647323Y-94984079D01*
X154575778Y-94875163D01*
X154467769Y-94802256D01*
X154340000Y-94776633D01*
X153040000Y-94776633D01*
X153040000Y-94304396D01*
X153145029Y-94199367D01*
X154340000Y-94199367D01*
X154463921Y-94175323D01*
X154572837Y-94103778D01*
X154645744Y-93995769D01*
X154671367Y-93868000D01*
X154671367Y-92568000D01*
X154647323Y-92444079D01*
X154575778Y-92335163D01*
X154467769Y-92262256D01*
X154340000Y-92236633D01*
X152840000Y-92236633D01*
X152716079Y-92260677D01*
X152607163Y-92332222D01*
X152534256Y-92440231D01*
X152508633Y-92568000D01*
X152508633Y-93562971D01*
X152271802Y-93799802D01*
X152174254Y-93945792D01*
X152140000Y-94118000D01*
X152140000Y-94709606D01*
X151775973Y-95073633D01*
X149446000Y-95073633D01*
X149322079Y-95097677D01*
X149213163Y-95169222D01*
X149140256Y-95277231D01*
X149114633Y-95405000D01*
X149114633Y-96405000D01*
X149138677Y-96528921D01*
X149188829Y-96605270D01*
X149140256Y-96677231D01*
X149114633Y-96805000D01*
X149114633Y-97805000D01*
X149138677Y-97928921D01*
X149188829Y-98005270D01*
X149140256Y-98077231D01*
X149114633Y-98205000D01*
X149114633Y-99205000D01*
X149138677Y-99328921D01*
X149188829Y-99405270D01*
X149140256Y-99477231D01*
X149114633Y-99605000D01*
X149114633Y-100605000D01*
X149138677Y-100728921D01*
X149188829Y-100805270D01*
X149140256Y-100877231D01*
X149114633Y-101005000D01*
X149114633Y-102005000D01*
X149138677Y-102128921D01*
X149188829Y-102205270D01*
X149140256Y-102277231D01*
X149114633Y-102405000D01*
X149114633Y-103405000D01*
X149138677Y-103528921D01*
X149188829Y-103605270D01*
X149140256Y-103677231D01*
X149114633Y-103805000D01*
X149114633Y-104805000D01*
X149138677Y-104928921D01*
X149210222Y-105037837D01*
X149318231Y-105110744D01*
X149446000Y-105136367D01*
X151896000Y-105136367D01*
X152019921Y-105112323D01*
X152128837Y-105040778D01*
X152190547Y-104949355D01*
X152355389Y-105114197D01*
X152501379Y-105211745D01*
X152673587Y-105245999D01*
X152688633Y-105245999D01*
X152688633Y-106039195D01*
X151632195Y-107095633D01*
X150173000Y-107095633D01*
X150049079Y-107119677D01*
X149940163Y-107191222D01*
X149867256Y-107299231D01*
X149841633Y-107427000D01*
X149841633Y-107502000D01*
X149673000Y-107502000D01*
X147866172Y-107502000D01*
X147597051Y-107232879D01*
X147599921Y-107232323D01*
X147708837Y-107160778D01*
X147781744Y-107052769D01*
X147807367Y-106925000D01*
X147807367Y-104475000D01*
X147783323Y-104351079D01*
X147711778Y-104242163D01*
X147603769Y-104169256D01*
X147476000Y-104143633D01*
X146476000Y-104143633D01*
X146352079Y-104167677D01*
X146275729Y-104217829D01*
X146203769Y-104169256D01*
X146076000Y-104143633D01*
X145076000Y-104143633D01*
X144952079Y-104167677D01*
X144875729Y-104217829D01*
X144803769Y-104169256D01*
X144676000Y-104143633D01*
X143676000Y-104143633D01*
X143552079Y-104167677D01*
X143475729Y-104217829D01*
X143403769Y-104169256D01*
X143276000Y-104143633D01*
X142276000Y-104143633D01*
X142152079Y-104167677D01*
X142075729Y-104217829D01*
X142003769Y-104169256D01*
X141876000Y-104143633D01*
X140876000Y-104143633D01*
X140752079Y-104167677D01*
X140675729Y-104217829D01*
X140603769Y-104169256D01*
X140476000Y-104143633D01*
X139476000Y-104143633D01*
X139352079Y-104167677D01*
X139275729Y-104217829D01*
X139203769Y-104169256D01*
X139076000Y-104143633D01*
X138076000Y-104143633D01*
X137952079Y-104167677D01*
X137875000Y-104218308D01*
X137875000Y-87332000D01*
X161625000Y-87332000D01*
X161625000Y-111582000D01*
X161625000Y-111582000D01*
G37*
X161625000Y-111582000D02*
X157546662Y-111582000D01*
X157546662Y-110267937D01*
X157404313Y-109923425D01*
X157140961Y-109659613D01*
X156796699Y-109516663D01*
X156423937Y-109516338D01*
X156079425Y-109658687D01*
X155815613Y-109922039D01*
X155672663Y-110266301D01*
X155672338Y-110639063D01*
X155814687Y-110983575D01*
X156078039Y-111247387D01*
X156422301Y-111390337D01*
X156795063Y-111390662D01*
X157139575Y-111248313D01*
X157403387Y-110984961D01*
X157546337Y-110640699D01*
X157546662Y-110267937D01*
X157546662Y-111582000D01*
X155546662Y-111582000D01*
X155546662Y-110267937D01*
X155404313Y-109923425D01*
X155140961Y-109659613D01*
X154796699Y-109516663D01*
X154423937Y-109516338D01*
X154079425Y-109658687D01*
X153815613Y-109922039D01*
X153672663Y-110266301D01*
X153672338Y-110639063D01*
X153814687Y-110983575D01*
X154078039Y-111247387D01*
X154422301Y-111390337D01*
X154795063Y-111390662D01*
X155139575Y-111248313D01*
X155403387Y-110984961D01*
X155546337Y-110640699D01*
X155546662Y-110267937D01*
X155546662Y-111582000D01*
X153546662Y-111582000D01*
X153546662Y-110267937D01*
X153404313Y-109923425D01*
X153140961Y-109659613D01*
X152796699Y-109516663D01*
X152423937Y-109516338D01*
X152079425Y-109658687D01*
X151815613Y-109922039D01*
X151672663Y-110266301D01*
X151672338Y-110639063D01*
X151814687Y-110983575D01*
X152078039Y-111247387D01*
X152422301Y-111390337D01*
X152795063Y-111390662D01*
X153139575Y-111248313D01*
X153403387Y-110984961D01*
X153546337Y-110640699D01*
X153546662Y-110267937D01*
X153546662Y-111582000D01*
X151546662Y-111582000D01*
X151546662Y-110267937D01*
X151404313Y-109923425D01*
X151140961Y-109659613D01*
X150796699Y-109516663D01*
X150423937Y-109516338D01*
X150079425Y-109658687D01*
X149815613Y-109922039D01*
X149672663Y-110266301D01*
X149672338Y-110639063D01*
X149814687Y-110983575D01*
X150078039Y-111247387D01*
X150422301Y-111390337D01*
X150795063Y-111390662D01*
X151139575Y-111248313D01*
X151403387Y-110984961D01*
X151546337Y-110640699D01*
X151546662Y-110267937D01*
X151546662Y-111582000D01*
X148117396Y-111582000D01*
X148315699Y-111383697D01*
X148342284Y-111357111D01*
X148422301Y-111390337D01*
X148795063Y-111390662D01*
X149139575Y-111248313D01*
X149403387Y-110984961D01*
X149546337Y-110640699D01*
X149546662Y-110267937D01*
X149404313Y-109923425D01*
X149140961Y-109659613D01*
X148796699Y-109516663D01*
X148423937Y-109516338D01*
X148079425Y-109658687D01*
X147815613Y-109922039D01*
X147672663Y-110266301D01*
X147672338Y-110639063D01*
X147706021Y-110720582D01*
X147679303Y-110747301D01*
X147486103Y-110940501D01*
X147421848Y-110940501D01*
X147546337Y-110640699D01*
X147546662Y-110267937D01*
X147404313Y-109923425D01*
X147140961Y-109659613D01*
X146796699Y-109516663D01*
X146423937Y-109516338D01*
X146079425Y-109658687D01*
X145815613Y-109922039D01*
X145672663Y-110266301D01*
X145672338Y-110639063D01*
X145796889Y-110940501D01*
X145421848Y-110940501D01*
X145546337Y-110640699D01*
X145546662Y-110267937D01*
X145404313Y-109923425D01*
X145140961Y-109659613D01*
X145059500Y-109625787D01*
X145059500Y-109588002D01*
X145059500Y-109008500D01*
X145025247Y-108836293D01*
X145025246Y-108836292D01*
X144965453Y-108746806D01*
X145163134Y-108828891D01*
X145411775Y-108829108D01*
X145641571Y-108734158D01*
X145817540Y-108558496D01*
X145867859Y-108437312D01*
X145982586Y-108322586D01*
X145982587Y-108322586D01*
X146107231Y-108136043D01*
X146151000Y-107916000D01*
X146151000Y-107241814D01*
X146199921Y-107232323D01*
X146276270Y-107182170D01*
X146348231Y-107230744D01*
X146401000Y-107241326D01*
X146401000Y-107425000D01*
X146444769Y-107645043D01*
X146569414Y-107831586D01*
X147221413Y-108483586D01*
X147221414Y-108483586D01*
X147407957Y-108608231D01*
X147628000Y-108652000D01*
X149673000Y-108652000D01*
X149841633Y-108652000D01*
X149841633Y-108727000D01*
X149865677Y-108850921D01*
X149937222Y-108959837D01*
X150045231Y-109032744D01*
X150173000Y-109058367D01*
X151673000Y-109058367D01*
X151796921Y-109034323D01*
X151905837Y-108962778D01*
X151978744Y-108854769D01*
X152004367Y-108727000D01*
X152004367Y-108349805D01*
X152541633Y-107812539D01*
X152541633Y-108727000D01*
X152565677Y-108850921D01*
X152637222Y-108959837D01*
X152745231Y-109032744D01*
X152873000Y-109058367D01*
X154373000Y-109058367D01*
X154496921Y-109034323D01*
X154605837Y-108962778D01*
X154678744Y-108854769D01*
X154704367Y-108727000D01*
X154704367Y-108527000D01*
X158476000Y-108527000D01*
X158648207Y-108492746D01*
X158648208Y-108492746D01*
X158794198Y-108395198D01*
X159147029Y-108042367D01*
X160342000Y-108042367D01*
X160465921Y-108018323D01*
X160574837Y-107946778D01*
X160647744Y-107838769D01*
X160673367Y-107711000D01*
X160673367Y-106411000D01*
X160649323Y-106287079D01*
X160577778Y-106178163D01*
X160469769Y-106105256D01*
X160342000Y-106079633D01*
X158842000Y-106079633D01*
X158718079Y-106103677D01*
X158609163Y-106175222D01*
X158536256Y-106283231D01*
X158510633Y-106411000D01*
X158510633Y-107405971D01*
X158289604Y-107627000D01*
X157973367Y-107627000D01*
X157973367Y-106411000D01*
X157949323Y-106287079D01*
X157877778Y-106178163D01*
X157769769Y-106105256D01*
X157642000Y-106079633D01*
X156447029Y-106079633D01*
X155160596Y-104793200D01*
X155810633Y-104793200D01*
X155810633Y-104993200D01*
X155834677Y-105117121D01*
X155906222Y-105226037D01*
X156014231Y-105298944D01*
X156142000Y-105324567D01*
X157642000Y-105324567D01*
X157765921Y-105300523D01*
X157874837Y-105228978D01*
X157947744Y-105120969D01*
X157973367Y-104993200D01*
X157973367Y-103693200D01*
X157959358Y-103621000D01*
X158133404Y-103621000D01*
X158510633Y-103998229D01*
X158510633Y-104993200D01*
X158534677Y-105117121D01*
X158606222Y-105226037D01*
X158714231Y-105298944D01*
X158842000Y-105324567D01*
X160342000Y-105324567D01*
X160465921Y-105300523D01*
X160574837Y-105228978D01*
X160647744Y-105120969D01*
X160673367Y-104993200D01*
X160673367Y-103693200D01*
X160649323Y-103569279D01*
X160577778Y-103460363D01*
X160469769Y-103387456D01*
X160342000Y-103361833D01*
X159546662Y-103361833D01*
X159546662Y-88267937D01*
X159404313Y-87923425D01*
X159140961Y-87659613D01*
X158796699Y-87516663D01*
X158423937Y-87516338D01*
X158079425Y-87658687D01*
X157815613Y-87922039D01*
X157672663Y-88266301D01*
X157672338Y-88639063D01*
X157706021Y-88720582D01*
X157679303Y-88747301D01*
X157486103Y-88940501D01*
X157421848Y-88940501D01*
X157546337Y-88640699D01*
X157546662Y-88267937D01*
X157404313Y-87923425D01*
X157140961Y-87659613D01*
X156796699Y-87516663D01*
X156423937Y-87516338D01*
X156079425Y-87658687D01*
X155815613Y-87922039D01*
X155672663Y-88266301D01*
X155672338Y-88639063D01*
X155796889Y-88940501D01*
X155421848Y-88940501D01*
X155546337Y-88640699D01*
X155546662Y-88267937D01*
X155404313Y-87923425D01*
X155140961Y-87659613D01*
X154796699Y-87516663D01*
X154423937Y-87516338D01*
X154079425Y-87658687D01*
X153815613Y-87922039D01*
X153672663Y-88266301D01*
X153672338Y-88639063D01*
X153796889Y-88940501D01*
X153421848Y-88940501D01*
X153546337Y-88640699D01*
X153546662Y-88267937D01*
X153404313Y-87923425D01*
X153140961Y-87659613D01*
X152796699Y-87516663D01*
X152423937Y-87516338D01*
X152079425Y-87658687D01*
X151815613Y-87922039D01*
X151672663Y-88266301D01*
X151672338Y-88639063D01*
X151796889Y-88940501D01*
X151421848Y-88940501D01*
X151546337Y-88640699D01*
X151546662Y-88267937D01*
X151404313Y-87923425D01*
X151140961Y-87659613D01*
X150796699Y-87516663D01*
X150423937Y-87516338D01*
X150079425Y-87658687D01*
X149815613Y-87922039D01*
X149672663Y-88266301D01*
X149672338Y-88639063D01*
X149796889Y-88940501D01*
X149682497Y-88940501D01*
X149546662Y-88967519D01*
X149546662Y-88267937D01*
X149404313Y-87923425D01*
X149140961Y-87659613D01*
X148796699Y-87516663D01*
X148423937Y-87516338D01*
X148079425Y-87658687D01*
X147815613Y-87922039D01*
X147672663Y-88266301D01*
X147672338Y-88639063D01*
X147814687Y-88983575D01*
X148078039Y-89247387D01*
X148422301Y-89390337D01*
X148795063Y-89390662D01*
X149139575Y-89248313D01*
X149403387Y-88984961D01*
X149546337Y-88640699D01*
X149546662Y-88267937D01*
X149546662Y-88967519D01*
X149510290Y-88974754D01*
X149364299Y-89072303D01*
X148786801Y-89649801D01*
X148689253Y-89795791D01*
X148654999Y-89967999D01*
X148654999Y-90298607D01*
X148208367Y-90745239D01*
X148208367Y-90228000D01*
X148184323Y-90104079D01*
X148112778Y-89995163D01*
X148004769Y-89922256D01*
X147877000Y-89896633D01*
X147546662Y-89896633D01*
X147546662Y-88267937D01*
X147404313Y-87923425D01*
X147140961Y-87659613D01*
X146796699Y-87516663D01*
X146423937Y-87516338D01*
X146079425Y-87658687D01*
X145815613Y-87922039D01*
X145672663Y-88266301D01*
X145672338Y-88639063D01*
X145814687Y-88983575D01*
X146078039Y-89247387D01*
X146422301Y-89390337D01*
X146795063Y-89390662D01*
X147139575Y-89248313D01*
X147403387Y-88984961D01*
X147546337Y-88640699D01*
X147546662Y-88267937D01*
X147546662Y-89896633D01*
X146677000Y-89896633D01*
X146553079Y-89920677D01*
X146444163Y-89992222D01*
X146371256Y-90100231D01*
X146345633Y-90228000D01*
X146345633Y-90822971D01*
X145939854Y-91228749D01*
X145820302Y-91228645D01*
X145590506Y-91323595D01*
X145414537Y-91499257D01*
X145391958Y-91553633D01*
X145076000Y-91553633D01*
X144952079Y-91577677D01*
X144875729Y-91627829D01*
X144803769Y-91579256D01*
X144676000Y-91553633D01*
X144609815Y-91553633D01*
X144591746Y-91462793D01*
X144591746Y-91462792D01*
X144494198Y-91316802D01*
X144447501Y-91270105D01*
X144447501Y-89390358D01*
X144795063Y-89390662D01*
X145139575Y-89248313D01*
X145403387Y-88984961D01*
X145546337Y-88640699D01*
X145546662Y-88267937D01*
X145404313Y-87923425D01*
X145140961Y-87659613D01*
X144796699Y-87516663D01*
X144423937Y-87516338D01*
X144079425Y-87658687D01*
X143815613Y-87922039D01*
X143672663Y-88266301D01*
X143672338Y-88639063D01*
X143706021Y-88720582D01*
X143679303Y-88747301D01*
X143581755Y-88893291D01*
X143547501Y-89065499D01*
X143547501Y-90370105D01*
X143537198Y-90359802D01*
X143391208Y-90262254D01*
X143255367Y-90235233D01*
X143255367Y-90228000D01*
X143231323Y-90104079D01*
X143159778Y-89995163D01*
X143051769Y-89922256D01*
X142924000Y-89896633D01*
X141826000Y-89896633D01*
X141826000Y-89873396D01*
X142342284Y-89357111D01*
X142422301Y-89390337D01*
X142795063Y-89390662D01*
X143139575Y-89248313D01*
X143403387Y-88984961D01*
X143546337Y-88640699D01*
X143546662Y-88267937D01*
X143404313Y-87923425D01*
X143140961Y-87659613D01*
X142796699Y-87516663D01*
X142423937Y-87516338D01*
X142079425Y-87658687D01*
X141815613Y-87922039D01*
X141672663Y-88266301D01*
X141672338Y-88639063D01*
X141706021Y-88720582D01*
X141546662Y-88879941D01*
X141546662Y-88267937D01*
X141404313Y-87923425D01*
X141140961Y-87659613D01*
X140796699Y-87516663D01*
X140423937Y-87516338D01*
X140079425Y-87658687D01*
X139815613Y-87922039D01*
X139672663Y-88266301D01*
X139672338Y-88639063D01*
X139814687Y-88983575D01*
X140078039Y-89247387D01*
X140422301Y-89390337D01*
X140795063Y-89390662D01*
X141139575Y-89248313D01*
X141403387Y-88984961D01*
X141546337Y-88640699D01*
X141546662Y-88267937D01*
X141546662Y-88879941D01*
X141057802Y-89368802D01*
X140960254Y-89514792D01*
X140926000Y-89687000D01*
X140926000Y-91553633D01*
X140876000Y-91553633D01*
X140752079Y-91577677D01*
X140643163Y-91649222D01*
X140570256Y-91757231D01*
X140544633Y-91885000D01*
X140544633Y-94335000D01*
X140568677Y-94458921D01*
X140640222Y-94567837D01*
X140748231Y-94640744D01*
X140876000Y-94666367D01*
X141876000Y-94666367D01*
X141999921Y-94642323D01*
X142108837Y-94570778D01*
X142181744Y-94462769D01*
X142207367Y-94335000D01*
X142207367Y-91885000D01*
X142183323Y-91761079D01*
X142111778Y-91652163D01*
X142003769Y-91579256D01*
X141876000Y-91553633D01*
X141826000Y-91553633D01*
X141826000Y-91459367D01*
X142924000Y-91459367D01*
X143047921Y-91435323D01*
X143156837Y-91363778D01*
X143201788Y-91297184D01*
X143509952Y-91605348D01*
X143443163Y-91649222D01*
X143370256Y-91757231D01*
X143344633Y-91885000D01*
X143344633Y-94335000D01*
X143368677Y-94458921D01*
X143440222Y-94567837D01*
X143548231Y-94640744D01*
X143676000Y-94666367D01*
X144676000Y-94666367D01*
X144799921Y-94642323D01*
X144876270Y-94592170D01*
X144948231Y-94640744D01*
X145076000Y-94666367D01*
X146076000Y-94666367D01*
X146199921Y-94642323D01*
X146276270Y-94592170D01*
X146348231Y-94640744D01*
X146476000Y-94666367D01*
X147476000Y-94666367D01*
X147599921Y-94642323D01*
X147676270Y-94592170D01*
X147748231Y-94640744D01*
X147876000Y-94666367D01*
X148876000Y-94666367D01*
X148999921Y-94642323D01*
X149108837Y-94570778D01*
X149181744Y-94462769D01*
X149207367Y-94335000D01*
X149207367Y-93707682D01*
X149227134Y-93715891D01*
X149475775Y-93716108D01*
X149705571Y-93621158D01*
X149881540Y-93445496D01*
X149976891Y-93215866D01*
X149977108Y-92967225D01*
X149882158Y-92737429D01*
X149706496Y-92561460D01*
X149476866Y-92466109D01*
X149228225Y-92465892D01*
X149207367Y-92474510D01*
X149207367Y-91885000D01*
X149183323Y-91761079D01*
X149111778Y-91652163D01*
X149003769Y-91579256D01*
X148876000Y-91553633D01*
X148672765Y-91553633D01*
X149423197Y-90803201D01*
X149520745Y-90657211D01*
X149520745Y-90657210D01*
X149554999Y-90485003D01*
X149554999Y-90154395D01*
X149868893Y-89840501D01*
X150380700Y-89840501D01*
X150606105Y-89840501D01*
X151298633Y-90533029D01*
X151298633Y-91128000D01*
X151322677Y-91251921D01*
X151394222Y-91360837D01*
X151502231Y-91433744D01*
X151630000Y-91459367D01*
X152830000Y-91459367D01*
X152953921Y-91435323D01*
X153062837Y-91363778D01*
X153135744Y-91255769D01*
X153161367Y-91128000D01*
X153161367Y-90228000D01*
X153137323Y-90104079D01*
X153065778Y-89995163D01*
X152957769Y-89922256D01*
X152830000Y-89896633D01*
X151935029Y-89896633D01*
X151878896Y-89840501D01*
X157672499Y-89840501D01*
X157844706Y-89806247D01*
X157844707Y-89806247D01*
X157990697Y-89708699D01*
X158315699Y-89383697D01*
X158342284Y-89357111D01*
X158422301Y-89390337D01*
X158795063Y-89390662D01*
X159139575Y-89248313D01*
X159403387Y-88984961D01*
X159546337Y-88640699D01*
X159546662Y-88267937D01*
X159546662Y-103361833D01*
X159520787Y-103361833D01*
X159520787Y-101437440D01*
X159520787Y-100238560D01*
X159520787Y-98897440D01*
X159520787Y-97698560D01*
X159520787Y-96357440D01*
X159520787Y-95158560D01*
X159520787Y-93817440D01*
X159520787Y-92618560D01*
X159496743Y-92494639D01*
X159425198Y-92385723D01*
X159317189Y-92312816D01*
X159189420Y-92287193D01*
X157990540Y-92287193D01*
X157866619Y-92311237D01*
X157757703Y-92382782D01*
X157684796Y-92490791D01*
X157659173Y-92618560D01*
X157659173Y-92768000D01*
X157371367Y-92768000D01*
X157371367Y-92568000D01*
X157347323Y-92444079D01*
X157275778Y-92335163D01*
X157167769Y-92262256D01*
X157040000Y-92236633D01*
X155540000Y-92236633D01*
X155416079Y-92260677D01*
X155307163Y-92332222D01*
X155234256Y-92440231D01*
X155208633Y-92568000D01*
X155208633Y-93868000D01*
X155232677Y-93991921D01*
X155304222Y-94100837D01*
X155412231Y-94173744D01*
X155540000Y-94199367D01*
X157040000Y-94199367D01*
X157163921Y-94175323D01*
X157272837Y-94103778D01*
X157345744Y-93995769D01*
X157371367Y-93868000D01*
X157371367Y-93668000D01*
X157659173Y-93668000D01*
X157659173Y-93817440D01*
X157683217Y-93941361D01*
X157754762Y-94050277D01*
X157862771Y-94123184D01*
X157990540Y-94148807D01*
X159189420Y-94148807D01*
X159313341Y-94124763D01*
X159422257Y-94053218D01*
X159495164Y-93945209D01*
X159520787Y-93817440D01*
X159520787Y-95158560D01*
X159496743Y-95034639D01*
X159425198Y-94925723D01*
X159317189Y-94852816D01*
X159189420Y-94827193D01*
X157990540Y-94827193D01*
X157866619Y-94851237D01*
X157757703Y-94922782D01*
X157684796Y-95030791D01*
X157659173Y-95158560D01*
X157659173Y-95308000D01*
X157371367Y-95308000D01*
X157371367Y-95108000D01*
X157347323Y-94984079D01*
X157275778Y-94875163D01*
X157167769Y-94802256D01*
X157040000Y-94776633D01*
X155540000Y-94776633D01*
X155416079Y-94800677D01*
X155307163Y-94872222D01*
X155234256Y-94980231D01*
X155208633Y-95108000D01*
X155208633Y-96408000D01*
X155232677Y-96531921D01*
X155304222Y-96640837D01*
X155412231Y-96713744D01*
X155540000Y-96739367D01*
X157040000Y-96739367D01*
X157163921Y-96715323D01*
X157272837Y-96643778D01*
X157345744Y-96535769D01*
X157371367Y-96408000D01*
X157371367Y-96208000D01*
X157659173Y-96208000D01*
X157659173Y-96357440D01*
X157683217Y-96481361D01*
X157754762Y-96590277D01*
X157862771Y-96663184D01*
X157990540Y-96688807D01*
X159189420Y-96688807D01*
X159313341Y-96664763D01*
X159422257Y-96593218D01*
X159495164Y-96485209D01*
X159520787Y-96357440D01*
X159520787Y-97698560D01*
X159496743Y-97574639D01*
X159425198Y-97465723D01*
X159317189Y-97392816D01*
X159189420Y-97367193D01*
X157990540Y-97367193D01*
X157866619Y-97391237D01*
X157757703Y-97462782D01*
X157684796Y-97570791D01*
X157659173Y-97698560D01*
X157659173Y-97848000D01*
X157371367Y-97848000D01*
X157371367Y-97648000D01*
X157347323Y-97524079D01*
X157275778Y-97415163D01*
X157167769Y-97342256D01*
X157040000Y-97316633D01*
X155540000Y-97316633D01*
X155416079Y-97340677D01*
X155307163Y-97412222D01*
X155234256Y-97520231D01*
X155208633Y-97648000D01*
X155208633Y-98948000D01*
X155232677Y-99071921D01*
X155304222Y-99180837D01*
X155412231Y-99253744D01*
X155540000Y-99279367D01*
X157040000Y-99279367D01*
X157163921Y-99255323D01*
X157272837Y-99183778D01*
X157345744Y-99075769D01*
X157371367Y-98948000D01*
X157371367Y-98748000D01*
X157659173Y-98748000D01*
X157659173Y-98897440D01*
X157683217Y-99021361D01*
X157754762Y-99130277D01*
X157862771Y-99203184D01*
X157990540Y-99228807D01*
X159189420Y-99228807D01*
X159313341Y-99204763D01*
X159422257Y-99133218D01*
X159495164Y-99025209D01*
X159520787Y-98897440D01*
X159520787Y-100238560D01*
X159496743Y-100114639D01*
X159425198Y-100005723D01*
X159317189Y-99932816D01*
X159189420Y-99907193D01*
X157990540Y-99907193D01*
X157866619Y-99931237D01*
X157757703Y-100002782D01*
X157684796Y-100110791D01*
X157659173Y-100238560D01*
X157659173Y-100388000D01*
X157371367Y-100388000D01*
X157371367Y-100188000D01*
X157347323Y-100064079D01*
X157275778Y-99955163D01*
X157167769Y-99882256D01*
X157040000Y-99856633D01*
X155540000Y-99856633D01*
X155416079Y-99880677D01*
X155307163Y-99952222D01*
X155234256Y-100060231D01*
X155208633Y-100188000D01*
X155208633Y-101488000D01*
X155232677Y-101611921D01*
X155304222Y-101720837D01*
X155412231Y-101793744D01*
X155540000Y-101819367D01*
X157040000Y-101819367D01*
X157163921Y-101795323D01*
X157272837Y-101723778D01*
X157345744Y-101615769D01*
X157371367Y-101488000D01*
X157371367Y-101288000D01*
X157659173Y-101288000D01*
X157659173Y-101437440D01*
X157683217Y-101561361D01*
X157754762Y-101670277D01*
X157862771Y-101743184D01*
X157990540Y-101768807D01*
X159189420Y-101768807D01*
X159313341Y-101744763D01*
X159422257Y-101673218D01*
X159495164Y-101565209D01*
X159520787Y-101437440D01*
X159520787Y-103361833D01*
X159147029Y-103361833D01*
X158637998Y-102852802D01*
X158492008Y-102755254D01*
X158319800Y-102721000D01*
X154651367Y-102721000D01*
X154651367Y-102421000D01*
X154627323Y-102297079D01*
X154555778Y-102188163D01*
X154447769Y-102115256D01*
X154320000Y-102089633D01*
X153020000Y-102089633D01*
X152896079Y-102113677D01*
X152787163Y-102185222D01*
X152714256Y-102293231D01*
X152688633Y-102421000D01*
X152688633Y-102811237D01*
X152464198Y-102586802D01*
X152318208Y-102489254D01*
X152227367Y-102471184D01*
X152227367Y-102405000D01*
X152203323Y-102281079D01*
X152153170Y-102204729D01*
X152201744Y-102132769D01*
X152227367Y-102005000D01*
X152227367Y-101005000D01*
X152203323Y-100881079D01*
X152153170Y-100804729D01*
X152201744Y-100732769D01*
X152227367Y-100605000D01*
X152227367Y-100555000D01*
X152508633Y-100555000D01*
X152508633Y-101488000D01*
X152532677Y-101611921D01*
X152604222Y-101720837D01*
X152712231Y-101793744D01*
X152840000Y-101819367D01*
X154340000Y-101819367D01*
X154463921Y-101795323D01*
X154572837Y-101723778D01*
X154645744Y-101615769D01*
X154671367Y-101488000D01*
X154671367Y-100188000D01*
X154647323Y-100064079D01*
X154575778Y-99955163D01*
X154467769Y-99882256D01*
X154340000Y-99856633D01*
X153245029Y-99856633D01*
X153175198Y-99786802D01*
X153029208Y-99689254D01*
X152857000Y-99655000D01*
X152227367Y-99655000D01*
X152227367Y-99605000D01*
X152203323Y-99481079D01*
X152153170Y-99404729D01*
X152201744Y-99332769D01*
X152227367Y-99205000D01*
X152227367Y-99155000D01*
X152587250Y-99155000D01*
X152604222Y-99180837D01*
X152712231Y-99253744D01*
X152840000Y-99279367D01*
X154340000Y-99279367D01*
X154463921Y-99255323D01*
X154572837Y-99183778D01*
X154645744Y-99075769D01*
X154671367Y-98948000D01*
X154671367Y-97648000D01*
X154647323Y-97524079D01*
X154575778Y-97415163D01*
X154467769Y-97342256D01*
X154340000Y-97316633D01*
X152840000Y-97316633D01*
X152754095Y-97333300D01*
X153348029Y-96739367D01*
X154340000Y-96739367D01*
X154463921Y-96715323D01*
X154572837Y-96643778D01*
X154645744Y-96535769D01*
X154671367Y-96408000D01*
X154671367Y-95108000D01*
X154647323Y-94984079D01*
X154575778Y-94875163D01*
X154467769Y-94802256D01*
X154340000Y-94776633D01*
X153040000Y-94776633D01*
X153040000Y-94304396D01*
X153145029Y-94199367D01*
X154340000Y-94199367D01*
X154463921Y-94175323D01*
X154572837Y-94103778D01*
X154645744Y-93995769D01*
X154671367Y-93868000D01*
X154671367Y-92568000D01*
X154647323Y-92444079D01*
X154575778Y-92335163D01*
X154467769Y-92262256D01*
X154340000Y-92236633D01*
X152840000Y-92236633D01*
X152716079Y-92260677D01*
X152607163Y-92332222D01*
X152534256Y-92440231D01*
X152508633Y-92568000D01*
X152508633Y-93562971D01*
X152271802Y-93799802D01*
X152174254Y-93945792D01*
X152140000Y-94118000D01*
X152140000Y-94709606D01*
X151775973Y-95073633D01*
X149446000Y-95073633D01*
X149322079Y-95097677D01*
X149213163Y-95169222D01*
X149140256Y-95277231D01*
X149114633Y-95405000D01*
X149114633Y-96405000D01*
X149138677Y-96528921D01*
X149188829Y-96605270D01*
X149140256Y-96677231D01*
X149114633Y-96805000D01*
X149114633Y-97805000D01*
X149138677Y-97928921D01*
X149188829Y-98005270D01*
X149140256Y-98077231D01*
X149114633Y-98205000D01*
X149114633Y-99205000D01*
X149138677Y-99328921D01*
X149188829Y-99405270D01*
X149140256Y-99477231D01*
X149114633Y-99605000D01*
X149114633Y-100605000D01*
X149138677Y-100728921D01*
X149188829Y-100805270D01*
X149140256Y-100877231D01*
X149114633Y-101005000D01*
X149114633Y-102005000D01*
X149138677Y-102128921D01*
X149188829Y-102205270D01*
X149140256Y-102277231D01*
X149114633Y-102405000D01*
X149114633Y-103405000D01*
X149138677Y-103528921D01*
X149188829Y-103605270D01*
X149140256Y-103677231D01*
X149114633Y-103805000D01*
X149114633Y-104805000D01*
X149138677Y-104928921D01*
X149210222Y-105037837D01*
X149318231Y-105110744D01*
X149446000Y-105136367D01*
X151896000Y-105136367D01*
X152019921Y-105112323D01*
X152128837Y-105040778D01*
X152190547Y-104949355D01*
X152355389Y-105114197D01*
X152501379Y-105211745D01*
X152673587Y-105245999D01*
X152688633Y-105245999D01*
X152688633Y-106039195D01*
X151632195Y-107095633D01*
X150173000Y-107095633D01*
X150049079Y-107119677D01*
X149940163Y-107191222D01*
X149867256Y-107299231D01*
X149841633Y-107427000D01*
X149841633Y-107502000D01*
X149673000Y-107502000D01*
X147866172Y-107502000D01*
X147597051Y-107232879D01*
X147599921Y-107232323D01*
X147708837Y-107160778D01*
X147781744Y-107052769D01*
X147807367Y-106925000D01*
X147807367Y-104475000D01*
X147783323Y-104351079D01*
X147711778Y-104242163D01*
X147603769Y-104169256D01*
X147476000Y-104143633D01*
X146476000Y-104143633D01*
X146352079Y-104167677D01*
X146275729Y-104217829D01*
X146203769Y-104169256D01*
X146076000Y-104143633D01*
X145076000Y-104143633D01*
X144952079Y-104167677D01*
X144875729Y-104217829D01*
X144803769Y-104169256D01*
X144676000Y-104143633D01*
X143676000Y-104143633D01*
X143552079Y-104167677D01*
X143475729Y-104217829D01*
X143403769Y-104169256D01*
X143276000Y-104143633D01*
X142276000Y-104143633D01*
X142152079Y-104167677D01*
X142075729Y-104217829D01*
X142003769Y-104169256D01*
X141876000Y-104143633D01*
X140876000Y-104143633D01*
X140752079Y-104167677D01*
X140675729Y-104217829D01*
X140603769Y-104169256D01*
X140476000Y-104143633D01*
X139476000Y-104143633D01*
X139352079Y-104167677D01*
X139275729Y-104217829D01*
X139203769Y-104169256D01*
X139076000Y-104143633D01*
X138076000Y-104143633D01*
X137952079Y-104167677D01*
X137875000Y-104218308D01*
X137875000Y-87332000D01*
X161625000Y-87332000D01*
X161625000Y-111582000D01*
M02*
