G04 #@! TF.FileFunction,Soldermask,Top*
%FSLAX46Y46*%
G04 Gerber Fmt 4.6, Leading zero omitted, Abs format (unit mm)*
G04 Created by KiCad (PCBNEW (after 2015-may-25 BZR unknown)-product) date Thu 04 Jun 2015 12:18:02 PM PDT*
%MOMM*%
G01*
G04 APERTURE LIST*
%ADD10C,0.100000*%
%ADD11R,1.198880X1.198880*%
%ADD12C,1.224000*%
%ADD13R,1.500000X1.300000*%
%ADD14R,1.300000X1.500000*%
%ADD15R,1.200000X0.900000*%
%ADD16R,1.000000X2.450000*%
%ADD17R,2.450000X1.000000*%
G04 APERTURE END LIST*
D10*
D11*
X158589980Y-100838000D03*
X160688020Y-100838000D03*
X158589980Y-98298000D03*
X160688020Y-98298000D03*
X158589980Y-95758000D03*
X160688020Y-95758000D03*
X158589980Y-93218000D03*
X160688020Y-93218000D03*
D12*
X140609500Y-110453500D03*
X142609500Y-110453500D03*
X144609500Y-110453500D03*
X146609500Y-110453500D03*
X148609500Y-110453500D03*
X150609500Y-110453500D03*
X152609500Y-110453500D03*
X154609500Y-110453500D03*
X156609500Y-110453500D03*
X158609500Y-110453500D03*
X140609500Y-88453500D03*
X142609500Y-88453500D03*
X144609500Y-88453500D03*
X146609500Y-88453500D03*
X148609500Y-88453500D03*
X150609500Y-88453500D03*
X152609500Y-88453500D03*
X154609500Y-88453500D03*
X156609500Y-88453500D03*
X158609500Y-88453500D03*
D13*
X153623000Y-108077000D03*
X150923000Y-108077000D03*
D14*
X153670000Y-103171000D03*
X153670000Y-105871000D03*
D13*
X156290000Y-100838000D03*
X153590000Y-100838000D03*
X156290000Y-98298000D03*
X153590000Y-98298000D03*
X156290000Y-95758000D03*
X153590000Y-95758000D03*
X156290000Y-93218000D03*
X153590000Y-93218000D03*
D15*
X140124000Y-90678000D03*
X142324000Y-90678000D03*
X145077000Y-90678000D03*
X147277000Y-90678000D03*
X150030000Y-90678000D03*
X152230000Y-90678000D03*
D16*
X148376000Y-93110000D03*
D17*
X150671000Y-104305000D03*
D16*
X138576000Y-105700000D03*
X139976000Y-105700000D03*
X141376000Y-105700000D03*
X142776000Y-105700000D03*
X144176000Y-105700000D03*
X145576000Y-105700000D03*
X146976000Y-105700000D03*
X148376000Y-105700000D03*
D17*
X150671000Y-102905000D03*
X150671000Y-101505000D03*
X150671000Y-100105000D03*
X150671000Y-98705000D03*
X150671000Y-97305000D03*
X150671000Y-95905000D03*
X150671000Y-94505000D03*
D16*
X146976000Y-93110000D03*
X145576000Y-93110000D03*
X144176000Y-93110000D03*
X142776000Y-93110000D03*
X141376000Y-93110000D03*
X139976000Y-93110000D03*
X138576000Y-93110000D03*
D13*
X159592000Y-107061000D03*
X156892000Y-107061000D03*
X159592000Y-104343200D03*
X156892000Y-104343200D03*
M02*
