G04 #@! TF.FileFunction,Copper,L2,Bot,Signal*
%FSLAX46Y46*%
G04 Gerber Fmt 4.6, Leading zero omitted, Abs format (unit mm)*
G04 Created by KiCad (PCBNEW (after 2015-may-25 BZR unknown)-product) date Thu 04 Jun 2015 12:18:02 PM PDT*
%MOMM*%
G01*
G04 APERTURE LIST*
%ADD10C,0.100000*%
%ADD11C,1.224000*%
%ADD12C,0.600000*%
%ADD13C,0.500000*%
%ADD14C,0.250000*%
G04 APERTURE END LIST*
D10*
D11*
X140609500Y-110453500D03*
X142609500Y-110453500D03*
X144609500Y-110453500D03*
X146609500Y-110453500D03*
X148609500Y-110453500D03*
X150609500Y-110453500D03*
X152609500Y-110453500D03*
X154609500Y-110453500D03*
X156609500Y-110453500D03*
X158609500Y-110453500D03*
X140609500Y-88453500D03*
X142609500Y-88453500D03*
X144609500Y-88453500D03*
X146609500Y-88453500D03*
X148609500Y-88453500D03*
X150609500Y-88453500D03*
X152609500Y-88453500D03*
X154609500Y-88453500D03*
X156609500Y-88453500D03*
X158609500Y-88453500D03*
D12*
X145542000Y-89154000D03*
X145288000Y-108204000D03*
X145944077Y-91853753D03*
X139954000Y-107315000D03*
X149352000Y-93091000D03*
D13*
X145542000Y-89154000D02*
X145542000Y-90391002D01*
X145542000Y-90391002D02*
X158609500Y-103458502D01*
X158609500Y-103458502D02*
X158609500Y-109588002D01*
X158609500Y-109588002D02*
X158609500Y-110453500D01*
X140609500Y-110453500D02*
X140625500Y-110453500D01*
X140625500Y-110453500D02*
X142875000Y-108204000D01*
X142875000Y-108204000D02*
X145288000Y-108204000D01*
D14*
X145944077Y-91853753D02*
X146609500Y-92519176D01*
X146609500Y-92519176D02*
X146609500Y-110453500D01*
X139954000Y-107315000D02*
X139654001Y-107614999D01*
X139654001Y-107614999D02*
X139654001Y-110884763D01*
X139654001Y-110884763D02*
X140159739Y-111390501D01*
X140159739Y-111390501D02*
X155672499Y-111390501D01*
X155672499Y-111390501D02*
X155997501Y-111065499D01*
X155997501Y-111065499D02*
X156609500Y-110453500D01*
X149352000Y-93091000D02*
X149352000Y-91196000D01*
X149352000Y-91196000D02*
X146609500Y-88453500D01*
G36*
X161625000Y-111582000D02*
X159546662Y-111582000D01*
X159546662Y-88267937D01*
X159404313Y-87923425D01*
X159140961Y-87659613D01*
X158796699Y-87516663D01*
X158423937Y-87516338D01*
X158079425Y-87658687D01*
X157815613Y-87922039D01*
X157672663Y-88266301D01*
X157672338Y-88639063D01*
X157814687Y-88983575D01*
X158078039Y-89247387D01*
X158422301Y-89390337D01*
X158795063Y-89390662D01*
X159139575Y-89248313D01*
X159403387Y-88984961D01*
X159546337Y-88640699D01*
X159546662Y-88267937D01*
X159546662Y-111582000D01*
X156117396Y-111582000D01*
X156315699Y-111383697D01*
X156342284Y-111357111D01*
X156422301Y-111390337D01*
X156795063Y-111390662D01*
X157139575Y-111248313D01*
X157403387Y-110984961D01*
X157546337Y-110640699D01*
X157546662Y-110267937D01*
X157546662Y-88267937D01*
X157404313Y-87923425D01*
X157140961Y-87659613D01*
X156796699Y-87516663D01*
X156423937Y-87516338D01*
X156079425Y-87658687D01*
X155815613Y-87922039D01*
X155672663Y-88266301D01*
X155672338Y-88639063D01*
X155814687Y-88983575D01*
X156078039Y-89247387D01*
X156422301Y-89390337D01*
X156795063Y-89390662D01*
X157139575Y-89248313D01*
X157403387Y-88984961D01*
X157546337Y-88640699D01*
X157546662Y-88267937D01*
X157546662Y-110267937D01*
X157404313Y-109923425D01*
X157140961Y-109659613D01*
X156796699Y-109516663D01*
X156423937Y-109516338D01*
X156079425Y-109658687D01*
X155815613Y-109922039D01*
X155672663Y-110266301D01*
X155672338Y-110639063D01*
X155706021Y-110720582D01*
X155679303Y-110747301D01*
X155486102Y-110940501D01*
X155421848Y-110940501D01*
X155546337Y-110640699D01*
X155546662Y-110267937D01*
X155546662Y-88267937D01*
X155404313Y-87923425D01*
X155140961Y-87659613D01*
X154796699Y-87516663D01*
X154423937Y-87516338D01*
X154079425Y-87658687D01*
X153815613Y-87922039D01*
X153672663Y-88266301D01*
X153672338Y-88639063D01*
X153814687Y-88983575D01*
X154078039Y-89247387D01*
X154422301Y-89390337D01*
X154795063Y-89390662D01*
X155139575Y-89248313D01*
X155403387Y-88984961D01*
X155546337Y-88640699D01*
X155546662Y-88267937D01*
X155546662Y-110267937D01*
X155404313Y-109923425D01*
X155140961Y-109659613D01*
X154796699Y-109516663D01*
X154423937Y-109516338D01*
X154079425Y-109658687D01*
X153815613Y-109922039D01*
X153672663Y-110266301D01*
X153672338Y-110639063D01*
X153796889Y-110940501D01*
X153421848Y-110940501D01*
X153546337Y-110640699D01*
X153546662Y-110267937D01*
X153546662Y-88267937D01*
X153404313Y-87923425D01*
X153140961Y-87659613D01*
X152796699Y-87516663D01*
X152423937Y-87516338D01*
X152079425Y-87658687D01*
X151815613Y-87922039D01*
X151672663Y-88266301D01*
X151672338Y-88639063D01*
X151814687Y-88983575D01*
X152078039Y-89247387D01*
X152422301Y-89390337D01*
X152795063Y-89390662D01*
X153139575Y-89248313D01*
X153403387Y-88984961D01*
X153546337Y-88640699D01*
X153546662Y-88267937D01*
X153546662Y-110267937D01*
X153404313Y-109923425D01*
X153140961Y-109659613D01*
X152796699Y-109516663D01*
X152423937Y-109516338D01*
X152079425Y-109658687D01*
X151815613Y-109922039D01*
X151672663Y-110266301D01*
X151672338Y-110639063D01*
X151796889Y-110940501D01*
X151421848Y-110940501D01*
X151546337Y-110640699D01*
X151546662Y-110267937D01*
X151546662Y-88267937D01*
X151404313Y-87923425D01*
X151140961Y-87659613D01*
X150796699Y-87516663D01*
X150423937Y-87516338D01*
X150079425Y-87658687D01*
X149815613Y-87922039D01*
X149672663Y-88266301D01*
X149672338Y-88639063D01*
X149814687Y-88983575D01*
X150078039Y-89247387D01*
X150422301Y-89390337D01*
X150795063Y-89390662D01*
X151139575Y-89248313D01*
X151403387Y-88984961D01*
X151546337Y-88640699D01*
X151546662Y-88267937D01*
X151546662Y-110267937D01*
X151404313Y-109923425D01*
X151140961Y-109659613D01*
X150796699Y-109516663D01*
X150423937Y-109516338D01*
X150079425Y-109658687D01*
X149977108Y-109760825D01*
X149977108Y-92967225D01*
X149882158Y-92737429D01*
X149802000Y-92657130D01*
X149802000Y-91196000D01*
X149767746Y-91023793D01*
X149767746Y-91023792D01*
X149670198Y-90877802D01*
X149546662Y-90754266D01*
X149546662Y-88267937D01*
X149404313Y-87923425D01*
X149140961Y-87659613D01*
X148796699Y-87516663D01*
X148423937Y-87516338D01*
X148079425Y-87658687D01*
X147815613Y-87922039D01*
X147672663Y-88266301D01*
X147672338Y-88639063D01*
X147814687Y-88983575D01*
X148078039Y-89247387D01*
X148422301Y-89390337D01*
X148795063Y-89390662D01*
X149139575Y-89248313D01*
X149403387Y-88984961D01*
X149546337Y-88640699D01*
X149546662Y-88267937D01*
X149546662Y-90754266D01*
X147513111Y-88720715D01*
X147546337Y-88640699D01*
X147546662Y-88267937D01*
X147404313Y-87923425D01*
X147140961Y-87659613D01*
X146796699Y-87516663D01*
X146423937Y-87516338D01*
X146079425Y-87658687D01*
X145815613Y-87922039D01*
X145672663Y-88266301D01*
X145672338Y-88639063D01*
X145814687Y-88983575D01*
X146078039Y-89247387D01*
X146422301Y-89390337D01*
X146795063Y-89390662D01*
X146876582Y-89356978D01*
X148902000Y-91382396D01*
X148902000Y-92657102D01*
X148822460Y-92736504D01*
X148727109Y-92966134D01*
X148726892Y-93214775D01*
X148821842Y-93444571D01*
X148997504Y-93620540D01*
X149227134Y-93715891D01*
X149475775Y-93716108D01*
X149705571Y-93621158D01*
X149881540Y-93445496D01*
X149976891Y-93215866D01*
X149977108Y-92967225D01*
X149977108Y-109760825D01*
X149815613Y-109922039D01*
X149672663Y-110266301D01*
X149672338Y-110639063D01*
X149796889Y-110940501D01*
X149421848Y-110940501D01*
X149546337Y-110640699D01*
X149546662Y-110267937D01*
X149404313Y-109923425D01*
X149140961Y-109659613D01*
X148796699Y-109516663D01*
X148423937Y-109516338D01*
X148079425Y-109658687D01*
X147815613Y-109922039D01*
X147672663Y-110266301D01*
X147672338Y-110639063D01*
X147796889Y-110940501D01*
X147421848Y-110940501D01*
X147546337Y-110640699D01*
X147546662Y-110267937D01*
X147404313Y-109923425D01*
X147140961Y-109659613D01*
X147059500Y-109625787D01*
X147059500Y-92519176D01*
X147025246Y-92346968D01*
X146927698Y-92200978D01*
X146569086Y-91842366D01*
X146569185Y-91729978D01*
X146474235Y-91500182D01*
X146298573Y-91324213D01*
X146068943Y-91228862D01*
X145820302Y-91228645D01*
X145590506Y-91323595D01*
X145546662Y-91367362D01*
X145546662Y-88267937D01*
X145404313Y-87923425D01*
X145140961Y-87659613D01*
X144796699Y-87516663D01*
X144423937Y-87516338D01*
X144079425Y-87658687D01*
X143815613Y-87922039D01*
X143672663Y-88266301D01*
X143672338Y-88639063D01*
X143814687Y-88983575D01*
X144078039Y-89247387D01*
X144422301Y-89390337D01*
X144795063Y-89390662D01*
X145139575Y-89248313D01*
X145403387Y-88984961D01*
X145546337Y-88640699D01*
X145546662Y-88267937D01*
X145546662Y-91367362D01*
X145414537Y-91499257D01*
X145319186Y-91728887D01*
X145318969Y-91977528D01*
X145413919Y-92207324D01*
X145589581Y-92383293D01*
X145819211Y-92478644D01*
X145932671Y-92478743D01*
X146159500Y-92705572D01*
X146159500Y-109625600D01*
X146079425Y-109658687D01*
X145815613Y-109922039D01*
X145672663Y-110266301D01*
X145672338Y-110639063D01*
X145796889Y-110940501D01*
X145421848Y-110940501D01*
X145546337Y-110640699D01*
X145546662Y-110267937D01*
X145404313Y-109923425D01*
X145140961Y-109659613D01*
X144796699Y-109516663D01*
X144423937Y-109516338D01*
X144079425Y-109658687D01*
X143815613Y-109922039D01*
X143672663Y-110266301D01*
X143672338Y-110639063D01*
X143796889Y-110940501D01*
X143421848Y-110940501D01*
X143546337Y-110640699D01*
X143546662Y-110267937D01*
X143404313Y-109923425D01*
X143140961Y-109659613D01*
X142796699Y-109516663D01*
X142423937Y-109516338D01*
X142341964Y-109550208D01*
X143113172Y-108779000D01*
X145042983Y-108779000D01*
X145163134Y-108828891D01*
X145411775Y-108829108D01*
X145641571Y-108734158D01*
X145817540Y-108558496D01*
X145912891Y-108328866D01*
X145913108Y-108080225D01*
X145818158Y-107850429D01*
X145642496Y-107674460D01*
X145412866Y-107579109D01*
X145164225Y-107578892D01*
X145042954Y-107629000D01*
X143546662Y-107629000D01*
X143546662Y-88267937D01*
X143404313Y-87923425D01*
X143140961Y-87659613D01*
X142796699Y-87516663D01*
X142423937Y-87516338D01*
X142079425Y-87658687D01*
X141815613Y-87922039D01*
X141672663Y-88266301D01*
X141672338Y-88639063D01*
X141814687Y-88983575D01*
X142078039Y-89247387D01*
X142422301Y-89390337D01*
X142795063Y-89390662D01*
X143139575Y-89248313D01*
X143403387Y-88984961D01*
X143546337Y-88640699D01*
X143546662Y-88267937D01*
X143546662Y-107629000D01*
X142875000Y-107629000D01*
X142654957Y-107672769D01*
X142468413Y-107797414D01*
X141546662Y-108719165D01*
X141546662Y-88267937D01*
X141404313Y-87923425D01*
X141140961Y-87659613D01*
X140796699Y-87516663D01*
X140423937Y-87516338D01*
X140079425Y-87658687D01*
X139815613Y-87922039D01*
X139672663Y-88266301D01*
X139672338Y-88639063D01*
X139814687Y-88983575D01*
X140078039Y-89247387D01*
X140422301Y-89390337D01*
X140795063Y-89390662D01*
X141139575Y-89248313D01*
X141403387Y-88984961D01*
X141546337Y-88640699D01*
X141546662Y-88267937D01*
X141546662Y-108719165D01*
X140749206Y-109516621D01*
X140423937Y-109516338D01*
X140104001Y-109648532D01*
X140104001Y-107929271D01*
X140307571Y-107845158D01*
X140483540Y-107669496D01*
X140578891Y-107439866D01*
X140579108Y-107191225D01*
X140484158Y-106961429D01*
X140308496Y-106785460D01*
X140078866Y-106690109D01*
X139830225Y-106689892D01*
X139600429Y-106784842D01*
X139424460Y-106960504D01*
X139329109Y-107190134D01*
X139329007Y-107306971D01*
X139238255Y-107442791D01*
X139204001Y-107614999D01*
X139204001Y-110884763D01*
X139238255Y-111056971D01*
X139335803Y-111202961D01*
X139714842Y-111582000D01*
X137875000Y-111582000D01*
X137875000Y-87332000D01*
X161625000Y-87332000D01*
X161625000Y-111582000D01*
X161625000Y-111582000D01*
G37*
X161625000Y-111582000D02*
X159546662Y-111582000D01*
X159546662Y-88267937D01*
X159404313Y-87923425D01*
X159140961Y-87659613D01*
X158796699Y-87516663D01*
X158423937Y-87516338D01*
X158079425Y-87658687D01*
X157815613Y-87922039D01*
X157672663Y-88266301D01*
X157672338Y-88639063D01*
X157814687Y-88983575D01*
X158078039Y-89247387D01*
X158422301Y-89390337D01*
X158795063Y-89390662D01*
X159139575Y-89248313D01*
X159403387Y-88984961D01*
X159546337Y-88640699D01*
X159546662Y-88267937D01*
X159546662Y-111582000D01*
X156117396Y-111582000D01*
X156315699Y-111383697D01*
X156342284Y-111357111D01*
X156422301Y-111390337D01*
X156795063Y-111390662D01*
X157139575Y-111248313D01*
X157403387Y-110984961D01*
X157546337Y-110640699D01*
X157546662Y-110267937D01*
X157546662Y-88267937D01*
X157404313Y-87923425D01*
X157140961Y-87659613D01*
X156796699Y-87516663D01*
X156423937Y-87516338D01*
X156079425Y-87658687D01*
X155815613Y-87922039D01*
X155672663Y-88266301D01*
X155672338Y-88639063D01*
X155814687Y-88983575D01*
X156078039Y-89247387D01*
X156422301Y-89390337D01*
X156795063Y-89390662D01*
X157139575Y-89248313D01*
X157403387Y-88984961D01*
X157546337Y-88640699D01*
X157546662Y-88267937D01*
X157546662Y-110267937D01*
X157404313Y-109923425D01*
X157140961Y-109659613D01*
X156796699Y-109516663D01*
X156423937Y-109516338D01*
X156079425Y-109658687D01*
X155815613Y-109922039D01*
X155672663Y-110266301D01*
X155672338Y-110639063D01*
X155706021Y-110720582D01*
X155679303Y-110747301D01*
X155486102Y-110940501D01*
X155421848Y-110940501D01*
X155546337Y-110640699D01*
X155546662Y-110267937D01*
X155546662Y-88267937D01*
X155404313Y-87923425D01*
X155140961Y-87659613D01*
X154796699Y-87516663D01*
X154423937Y-87516338D01*
X154079425Y-87658687D01*
X153815613Y-87922039D01*
X153672663Y-88266301D01*
X153672338Y-88639063D01*
X153814687Y-88983575D01*
X154078039Y-89247387D01*
X154422301Y-89390337D01*
X154795063Y-89390662D01*
X155139575Y-89248313D01*
X155403387Y-88984961D01*
X155546337Y-88640699D01*
X155546662Y-88267937D01*
X155546662Y-110267937D01*
X155404313Y-109923425D01*
X155140961Y-109659613D01*
X154796699Y-109516663D01*
X154423937Y-109516338D01*
X154079425Y-109658687D01*
X153815613Y-109922039D01*
X153672663Y-110266301D01*
X153672338Y-110639063D01*
X153796889Y-110940501D01*
X153421848Y-110940501D01*
X153546337Y-110640699D01*
X153546662Y-110267937D01*
X153546662Y-88267937D01*
X153404313Y-87923425D01*
X153140961Y-87659613D01*
X152796699Y-87516663D01*
X152423937Y-87516338D01*
X152079425Y-87658687D01*
X151815613Y-87922039D01*
X151672663Y-88266301D01*
X151672338Y-88639063D01*
X151814687Y-88983575D01*
X152078039Y-89247387D01*
X152422301Y-89390337D01*
X152795063Y-89390662D01*
X153139575Y-89248313D01*
X153403387Y-88984961D01*
X153546337Y-88640699D01*
X153546662Y-88267937D01*
X153546662Y-110267937D01*
X153404313Y-109923425D01*
X153140961Y-109659613D01*
X152796699Y-109516663D01*
X152423937Y-109516338D01*
X152079425Y-109658687D01*
X151815613Y-109922039D01*
X151672663Y-110266301D01*
X151672338Y-110639063D01*
X151796889Y-110940501D01*
X151421848Y-110940501D01*
X151546337Y-110640699D01*
X151546662Y-110267937D01*
X151546662Y-88267937D01*
X151404313Y-87923425D01*
X151140961Y-87659613D01*
X150796699Y-87516663D01*
X150423937Y-87516338D01*
X150079425Y-87658687D01*
X149815613Y-87922039D01*
X149672663Y-88266301D01*
X149672338Y-88639063D01*
X149814687Y-88983575D01*
X150078039Y-89247387D01*
X150422301Y-89390337D01*
X150795063Y-89390662D01*
X151139575Y-89248313D01*
X151403387Y-88984961D01*
X151546337Y-88640699D01*
X151546662Y-88267937D01*
X151546662Y-110267937D01*
X151404313Y-109923425D01*
X151140961Y-109659613D01*
X150796699Y-109516663D01*
X150423937Y-109516338D01*
X150079425Y-109658687D01*
X149977108Y-109760825D01*
X149977108Y-92967225D01*
X149882158Y-92737429D01*
X149802000Y-92657130D01*
X149802000Y-91196000D01*
X149767746Y-91023793D01*
X149767746Y-91023792D01*
X149670198Y-90877802D01*
X149546662Y-90754266D01*
X149546662Y-88267937D01*
X149404313Y-87923425D01*
X149140961Y-87659613D01*
X148796699Y-87516663D01*
X148423937Y-87516338D01*
X148079425Y-87658687D01*
X147815613Y-87922039D01*
X147672663Y-88266301D01*
X147672338Y-88639063D01*
X147814687Y-88983575D01*
X148078039Y-89247387D01*
X148422301Y-89390337D01*
X148795063Y-89390662D01*
X149139575Y-89248313D01*
X149403387Y-88984961D01*
X149546337Y-88640699D01*
X149546662Y-88267937D01*
X149546662Y-90754266D01*
X147513111Y-88720715D01*
X147546337Y-88640699D01*
X147546662Y-88267937D01*
X147404313Y-87923425D01*
X147140961Y-87659613D01*
X146796699Y-87516663D01*
X146423937Y-87516338D01*
X146079425Y-87658687D01*
X145815613Y-87922039D01*
X145672663Y-88266301D01*
X145672338Y-88639063D01*
X145814687Y-88983575D01*
X146078039Y-89247387D01*
X146422301Y-89390337D01*
X146795063Y-89390662D01*
X146876582Y-89356978D01*
X148902000Y-91382396D01*
X148902000Y-92657102D01*
X148822460Y-92736504D01*
X148727109Y-92966134D01*
X148726892Y-93214775D01*
X148821842Y-93444571D01*
X148997504Y-93620540D01*
X149227134Y-93715891D01*
X149475775Y-93716108D01*
X149705571Y-93621158D01*
X149881540Y-93445496D01*
X149976891Y-93215866D01*
X149977108Y-92967225D01*
X149977108Y-109760825D01*
X149815613Y-109922039D01*
X149672663Y-110266301D01*
X149672338Y-110639063D01*
X149796889Y-110940501D01*
X149421848Y-110940501D01*
X149546337Y-110640699D01*
X149546662Y-110267937D01*
X149404313Y-109923425D01*
X149140961Y-109659613D01*
X148796699Y-109516663D01*
X148423937Y-109516338D01*
X148079425Y-109658687D01*
X147815613Y-109922039D01*
X147672663Y-110266301D01*
X147672338Y-110639063D01*
X147796889Y-110940501D01*
X147421848Y-110940501D01*
X147546337Y-110640699D01*
X147546662Y-110267937D01*
X147404313Y-109923425D01*
X147140961Y-109659613D01*
X147059500Y-109625787D01*
X147059500Y-92519176D01*
X147025246Y-92346968D01*
X146927698Y-92200978D01*
X146569086Y-91842366D01*
X146569185Y-91729978D01*
X146474235Y-91500182D01*
X146298573Y-91324213D01*
X146068943Y-91228862D01*
X145820302Y-91228645D01*
X145590506Y-91323595D01*
X145546662Y-91367362D01*
X145546662Y-88267937D01*
X145404313Y-87923425D01*
X145140961Y-87659613D01*
X144796699Y-87516663D01*
X144423937Y-87516338D01*
X144079425Y-87658687D01*
X143815613Y-87922039D01*
X143672663Y-88266301D01*
X143672338Y-88639063D01*
X143814687Y-88983575D01*
X144078039Y-89247387D01*
X144422301Y-89390337D01*
X144795063Y-89390662D01*
X145139575Y-89248313D01*
X145403387Y-88984961D01*
X145546337Y-88640699D01*
X145546662Y-88267937D01*
X145546662Y-91367362D01*
X145414537Y-91499257D01*
X145319186Y-91728887D01*
X145318969Y-91977528D01*
X145413919Y-92207324D01*
X145589581Y-92383293D01*
X145819211Y-92478644D01*
X145932671Y-92478743D01*
X146159500Y-92705572D01*
X146159500Y-109625600D01*
X146079425Y-109658687D01*
X145815613Y-109922039D01*
X145672663Y-110266301D01*
X145672338Y-110639063D01*
X145796889Y-110940501D01*
X145421848Y-110940501D01*
X145546337Y-110640699D01*
X145546662Y-110267937D01*
X145404313Y-109923425D01*
X145140961Y-109659613D01*
X144796699Y-109516663D01*
X144423937Y-109516338D01*
X144079425Y-109658687D01*
X143815613Y-109922039D01*
X143672663Y-110266301D01*
X143672338Y-110639063D01*
X143796889Y-110940501D01*
X143421848Y-110940501D01*
X143546337Y-110640699D01*
X143546662Y-110267937D01*
X143404313Y-109923425D01*
X143140961Y-109659613D01*
X142796699Y-109516663D01*
X142423937Y-109516338D01*
X142341964Y-109550208D01*
X143113172Y-108779000D01*
X145042983Y-108779000D01*
X145163134Y-108828891D01*
X145411775Y-108829108D01*
X145641571Y-108734158D01*
X145817540Y-108558496D01*
X145912891Y-108328866D01*
X145913108Y-108080225D01*
X145818158Y-107850429D01*
X145642496Y-107674460D01*
X145412866Y-107579109D01*
X145164225Y-107578892D01*
X145042954Y-107629000D01*
X143546662Y-107629000D01*
X143546662Y-88267937D01*
X143404313Y-87923425D01*
X143140961Y-87659613D01*
X142796699Y-87516663D01*
X142423937Y-87516338D01*
X142079425Y-87658687D01*
X141815613Y-87922039D01*
X141672663Y-88266301D01*
X141672338Y-88639063D01*
X141814687Y-88983575D01*
X142078039Y-89247387D01*
X142422301Y-89390337D01*
X142795063Y-89390662D01*
X143139575Y-89248313D01*
X143403387Y-88984961D01*
X143546337Y-88640699D01*
X143546662Y-88267937D01*
X143546662Y-107629000D01*
X142875000Y-107629000D01*
X142654957Y-107672769D01*
X142468413Y-107797414D01*
X141546662Y-108719165D01*
X141546662Y-88267937D01*
X141404313Y-87923425D01*
X141140961Y-87659613D01*
X140796699Y-87516663D01*
X140423937Y-87516338D01*
X140079425Y-87658687D01*
X139815613Y-87922039D01*
X139672663Y-88266301D01*
X139672338Y-88639063D01*
X139814687Y-88983575D01*
X140078039Y-89247387D01*
X140422301Y-89390337D01*
X140795063Y-89390662D01*
X141139575Y-89248313D01*
X141403387Y-88984961D01*
X141546337Y-88640699D01*
X141546662Y-88267937D01*
X141546662Y-108719165D01*
X140749206Y-109516621D01*
X140423937Y-109516338D01*
X140104001Y-109648532D01*
X140104001Y-107929271D01*
X140307571Y-107845158D01*
X140483540Y-107669496D01*
X140578891Y-107439866D01*
X140579108Y-107191225D01*
X140484158Y-106961429D01*
X140308496Y-106785460D01*
X140078866Y-106690109D01*
X139830225Y-106689892D01*
X139600429Y-106784842D01*
X139424460Y-106960504D01*
X139329109Y-107190134D01*
X139329007Y-107306971D01*
X139238255Y-107442791D01*
X139204001Y-107614999D01*
X139204001Y-110884763D01*
X139238255Y-111056971D01*
X139335803Y-111202961D01*
X139714842Y-111582000D01*
X137875000Y-111582000D01*
X137875000Y-87332000D01*
X161625000Y-87332000D01*
X161625000Y-111582000D01*
M02*
