M48
;DRILL file {KiCad (after 2015-may-25 BZR unknown)-product} date Thu 04 Jun 2015 12:18:03 PM PDT
;FORMAT={-:-/ absolute / inch / decimal}
FMAT,2
INCH,TZ
T1C0.016
T2C0.031
%
G90
G05
M72
T1
X5.51Y-4.225
X5.72Y-4.26
X5.73Y-3.51
X5.7458Y-3.6163
X5.88Y-3.665
T2
X5.5358Y-3.4824
X5.5358Y-4.3486
X5.6145Y-3.4824
X5.6145Y-4.3486
X5.6933Y-3.4824
X5.6933Y-4.3486
X5.772Y-3.4824
X5.772Y-4.3486
X5.8508Y-3.4824
X5.8508Y-4.3486
X5.9295Y-3.4824
X5.9295Y-4.3486
X6.0082Y-3.4824
X6.0082Y-4.3486
X6.087Y-3.4824
X6.087Y-4.3486
X6.1657Y-3.4824
X6.1657Y-4.3486
X6.2445Y-3.4824
X6.2445Y-4.3486
T0
M30
